<svg xmlns="http://www.w3.org/2000/svg" width="321" height="102" viewBox="0 0 321 102" fill="none"><mask id="path-1-outside-1_458_785" maskUnits="userSpaceOnUse" x="71.476" y="-.131" width="179" height="90" fill="#000"><path fill="#fff" d="M71.476 -0.131H250.476V89.869H71.476z"/><path fill-rule="evenodd" clip-rule="evenodd" d="M72.4756 55.9382V87.2084H96.7865V55.9382H96.2898V86.7117H72.9722V55.9382H72.4756ZM72.4756 34.2003H72.9722V2.08075H96.2898V34.2003H96.7865V1.58409H72.4756V34.2003ZM128.842 55.9382V87.2084H153.153V55.9382H152.656V86.7117H129.339V55.9382H128.842ZM129.339 34.2003H128.842V22.8412H104.329V1.58409H177.547V22.8412H153.153V34.2003H152.656V22.3445H177.05V2.08075H104.826V22.3445H129.339V34.2003ZM210.387 55.9382C211.723 56.3639 212.998 56.7671 214.213 57.1476L214.221 57.1501L214.229 57.1523C217.078 57.9413 219.351 58.8033 221.059 59.7324L221.067 59.7366L221.075 59.7406C221.897 60.15 222.481 60.6368 222.861 61.1872C223.237 61.7333 223.431 62.3682 223.431 63.1104C223.431 64.0349 223.014 64.8044 222.094 65.4406C221.695 65.7051 221.092 65.9261 220.251 66.0785C219.413 66.2304 218.369 66.3089 217.111 66.3089C213.892 66.3089 210.671 65.8395 207.446 64.8987C204.277 63.9508 201.389 62.8857 198.782 61.7044C196.16 60.5165 194.066 59.4524 192.494 58.5122L190.103 57.0822L190.103 57.0819L189.64 56.8053L179.153 78.088L179.554 78.3208C183.01 80.3236 186.823 82.0837 190.993 83.6024L190.997 83.6039L191.001 83.6053C195.168 85.0431 199.455 86.2012 203.861 87.0796L203.866 87.0806L203.871 87.0815C208.361 87.8807 212.655 88.2812 216.753 88.2812C220.775 88.2812 224.719 87.8401 228.582 86.9575L228.587 86.9564L228.591 86.9553C232.47 85.9887 235.99 84.4567 239.149 82.3574C242.329 80.2443 244.855 77.4402 246.726 73.9539L246.727 73.9518L246.728 73.9497C248.608 70.3646 249.535 65.9893 249.535 60.8456C249.535 59.1016 249.425 57.4653 249.204 55.9382H248.702C248.926 57.4579 249.038 59.0937 249.038 60.8456C249.038 65.9314 248.122 70.2226 246.288 73.7191C244.455 77.1361 241.983 79.8777 238.874 81.9438C235.765 84.0099 232.298 85.5198 228.471 86.4733C224.645 87.3475 220.739 87.7845 216.753 87.7845C212.687 87.7845 208.422 87.3872 203.958 86.5925C199.573 85.7184 195.308 84.5662 191.163 83.1358C187.018 81.6259 183.231 79.8777 179.803 77.891L189.848 57.5081L192.239 58.9385C193.834 59.8921 195.946 60.9648 198.577 62.1568C201.208 63.3488 204.117 64.4216 207.306 65.3752C210.574 66.3288 213.843 66.8056 217.111 66.8056C219.662 66.8056 221.416 66.4877 222.373 65.852C223.409 65.1368 223.927 64.2229 223.927 63.1104C223.927 61.4416 223.05 60.1702 221.297 59.2961C219.543 58.3425 217.231 57.4684 214.361 56.6737C213.606 56.4373 212.828 56.1921 212.027 55.9382H210.387ZM183.804 34.2003H183.302C183.109 32.8634 183.014 31.4541 183.014 29.9732C183.014 23.6163 184.508 18.2662 187.528 13.9541C190.529 9.66797 194.466 6.43218 199.329 4.25068C204.259 1.9952 209.55 0.868896 215.198 0.868896C219.383 0.868896 223.411 1.39016 227.28 2.43409C231.207 3.39308 234.857 4.59259 238.231 6.03367C241.665 7.46679 244.664 8.82199 247.227 10.0993L247.681 10.3253L237.16 30.4269L236.71 30.1633L236.709 30.163L236.708 30.1621L234.677 28.9713C233.347 28.1913 231.574 27.3265 229.352 26.3772L229.345 26.3743L229.339 26.3712C227.13 25.3489 224.721 24.4431 222.11 23.6543C219.522 22.8727 216.979 22.4836 214.481 22.4836C212.536 22.4836 210.984 22.7945 209.8 23.385C209.235 23.6665 208.833 24.0324 208.57 24.4757C208.305 24.9206 208.161 25.4745 208.161 26.1589C208.161 27.4104 208.706 28.4156 209.859 29.2059C211.076 30.0404 212.817 30.8169 215.104 31.5244C217.497 32.2402 220.328 33.1146 223.596 34.1474C223.654 34.165 223.712 34.1827 223.77 34.2003H222.111C219.402 33.3489 217.018 32.6154 214.959 31.9996C212.647 31.2844 210.854 30.4897 209.578 29.6156C208.303 28.7415 207.665 27.5892 207.665 26.1589C207.665 24.649 208.303 23.5762 209.578 22.9405C210.854 22.3048 212.488 21.9869 214.481 21.9869C217.032 21.9869 219.622 22.3842 222.253 23.1789C224.884 23.9736 227.315 24.8874 229.547 25.9205C231.78 26.8741 233.573 27.7482 234.928 28.5428L236.961 29.7348L247.006 10.5438C246.859 10.4706 246.71 10.3971 246.561 10.3233C244.109 9.1165 241.268 7.83909 238.037 6.49109C234.689 5.06071 231.062 3.86872 227.156 2.91514C223.329 1.88208 219.343 1.36556 215.198 1.36556C209.618 1.36556 204.396 2.47807 199.534 4.70311C194.75 6.84869 190.884 10.0273 187.935 14.239C184.985 18.4507 183.51 23.6954 183.51 29.9732C183.51 31.4593 183.608 32.8684 183.804 34.2003Z"/></mask><path fill-rule="evenodd" clip-rule="evenodd" d="M72.4756 55.9382V87.2084H96.7865V55.9382H96.2898V86.7117H72.9722V55.9382H72.4756ZM72.4756 34.2003H72.9722V2.08075H96.2898V34.2003H96.7865V1.58409H72.4756V34.2003ZM128.842 55.9382V87.2084H153.153V55.9382H152.656V86.7117H129.339V55.9382H128.842ZM129.339 34.2003H128.842V22.8412H104.329V1.58409H177.547V22.8412H153.153V34.2003H152.656V22.3445H177.05V2.08075H104.826V22.3445H129.339V34.2003ZM210.387 55.9382C211.723 56.3639 212.998 56.7671 214.213 57.1476L214.221 57.1501L214.229 57.1523C217.078 57.9413 219.351 58.8033 221.059 59.7324L221.067 59.7366L221.075 59.7406C221.897 60.15 222.481 60.6368 222.861 61.1872C223.237 61.7333 223.431 62.3682 223.431 63.1104C223.431 64.0349 223.014 64.8044 222.094 65.4406C221.695 65.7051 221.092 65.9261 220.251 66.0785C219.413 66.2304 218.369 66.3089 217.111 66.3089C213.892 66.3089 210.671 65.8395 207.446 64.8987C204.277 63.9508 201.389 62.8857 198.782 61.7044C196.16 60.5165 194.066 59.4524 192.494 58.5122L190.103 57.0822L190.103 57.0819L189.64 56.8053L179.153 78.088L179.554 78.3208C183.01 80.3236 186.823 82.0837 190.993 83.6024L190.997 83.6039L191.001 83.6053C195.168 85.0431 199.455 86.2012 203.861 87.0796L203.866 87.0806L203.871 87.0815C208.361 87.8807 212.655 88.2812 216.753 88.2812C220.775 88.2812 224.719 87.8401 228.582 86.9575L228.587 86.9564L228.591 86.9553C232.47 85.9887 235.99 84.4567 239.149 82.3574C242.329 80.2443 244.855 77.4402 246.726 73.9539L246.727 73.9518L246.728 73.9497C248.608 70.3646 249.535 65.9893 249.535 60.8456C249.535 59.1016 249.425 57.4653 249.204 55.9382H248.702C248.926 57.4579 249.038 59.0937 249.038 60.8456C249.038 65.9314 248.122 70.2226 246.288 73.7191C244.455 77.1361 241.983 79.8777 238.874 81.9438C235.765 84.0099 232.298 85.5198 228.471 86.4733C224.645 87.3475 220.739 87.7845 216.753 87.7845C212.687 87.7845 208.422 87.3872 203.958 86.5925C199.573 85.7184 195.308 84.5662 191.163 83.1358C187.018 81.6259 183.231 79.8777 179.803 77.891L189.848 57.5081L192.239 58.9385C193.834 59.8921 195.946 60.9648 198.577 62.1568C201.208 63.3488 204.117 64.4216 207.306 65.3752C210.574 66.3288 213.843 66.8056 217.111 66.8056C219.662 66.8056 221.416 66.4877 222.373 65.852C223.409 65.1368 223.927 64.2229 223.927 63.1104C223.927 61.4416 223.05 60.1702 221.297 59.2961C219.543 58.3425 217.231 57.4684 214.361 56.6737C213.606 56.4373 212.828 56.1921 212.027 55.9382H210.387ZM183.804 34.2003H183.302C183.109 32.8634 183.014 31.4541 183.014 29.9732C183.014 23.6163 184.508 18.2662 187.528 13.9541C190.529 9.66797 194.466 6.43218 199.329 4.25068C204.259 1.9952 209.55 0.868896 215.198 0.868896C219.383 0.868896 223.411 1.39016 227.28 2.43409C231.207 3.39308 234.857 4.59259 238.231 6.03367C241.665 7.46679 244.664 8.82199 247.227 10.0993L247.681 10.3253L237.16 30.4269L236.71 30.1633L236.709 30.163L236.708 30.1621L234.677 28.9713C233.347 28.1913 231.574 27.3265 229.352 26.3772L229.345 26.3743L229.339 26.3712C227.13 25.3489 224.721 24.4431 222.11 23.6543C219.522 22.8727 216.979 22.4836 214.481 22.4836C212.536 22.4836 210.984 22.7945 209.8 23.385C209.235 23.6665 208.833 24.0324 208.57 24.4757C208.305 24.9206 208.161 25.4745 208.161 26.1589C208.161 27.4104 208.706 28.4156 209.859 29.2059C211.076 30.0404 212.817 30.8169 215.104 31.5244C217.497 32.2402 220.328 33.1146 223.596 34.1474C223.654 34.165 223.712 34.1827 223.77 34.2003H222.111C219.402 33.3489 217.018 32.6154 214.959 31.9996C212.647 31.2844 210.854 30.4897 209.578 29.6156C208.303 28.7415 207.665 27.5892 207.665 26.1589C207.665 24.649 208.303 23.5762 209.578 22.9405C210.854 22.3048 212.488 21.9869 214.481 21.9869C217.032 21.9869 219.622 22.3842 222.253 23.1789C224.884 23.9736 227.315 24.8874 229.547 25.9205C231.78 26.8741 233.573 27.7482 234.928 28.5428L236.961 29.7348L247.006 10.5438C246.859 10.4706 246.71 10.3971 246.561 10.3233C244.109 9.1165 241.268 7.83909 238.037 6.49109C234.689 5.06071 231.062 3.86872 227.156 2.91514C223.329 1.88208 219.343 1.36556 215.198 1.36556C209.618 1.36556 204.396 2.47807 199.534 4.70311C194.75 6.84869 190.884 10.0273 187.935 14.239C184.985 18.4507 183.51 23.6954 183.51 29.9732C183.51 31.4593 183.608 32.8684 183.804 34.2003Z" fill="#626AF5"/><path d="M72.4756 87.2084H71.6406V88.0434H72.4756V87.2084ZM72.4756 55.9382V55.1032H71.6406V55.9382H72.4756ZM96.7865 87.2084V88.0434H97.6215V87.2084H96.7865ZM96.7865 55.9382H97.6215V55.1032H96.7865V55.9382ZM96.2898 55.9382V55.1032H95.4548V55.9382H96.2898ZM96.2898 86.7117V87.5468H97.1248V86.7117H96.2898ZM72.9722 86.7117H72.1372V87.5468H72.9722V86.7117ZM72.9722 55.9382H73.8073V55.1032H72.9722V55.9382ZM72.4756 34.2003H71.6406V35.0353H72.4756V34.2003ZM72.9722 34.2003V35.0353H73.8073V34.2003H72.9722ZM72.9722 2.08075V1.24572H72.1372V2.08075H72.9722ZM96.2898 2.08075H97.1248V1.24572H96.2898V2.08075ZM96.2898 34.2003H95.4548V35.0353H96.2898V34.2003ZM96.7865 34.2003V35.0353H97.6215V34.2003H96.7865ZM96.7865 1.58409H97.6215V0.749061H96.7865V1.58409ZM72.4756 1.58409V0.749061H71.6406V1.58409H72.4756ZM128.842 87.2084H128.007V88.0434H128.842V87.2084ZM128.842 55.9382V55.1032H128.007V55.9382H128.842ZM153.153 87.2084V88.0434H153.988V87.2084H153.153ZM153.153 55.9382H153.988V55.1032H153.153V55.9382ZM152.656 55.9382V55.1032H151.821V55.9382H152.656ZM152.656 86.7117V87.5468H153.491V86.7117H152.656ZM129.339 86.7117H128.504V87.5468H129.339V86.7117ZM129.339 55.9382H130.174V55.1032H129.339V55.9382ZM128.842 34.2003H128.007V35.0353H128.842V34.2003ZM129.339 34.2003V35.0353H130.174V34.2003H129.339ZM128.842 22.8412H129.677V22.0061H128.842V22.8412ZM104.329 22.8412H103.494V23.6762H104.329V22.8412ZM104.329 1.58409V0.749061H103.494V1.58409H104.329ZM177.547 1.58409H178.382V0.749061H177.547V1.58409ZM177.547 22.8412V23.6762H178.382V22.8412H177.547ZM153.153 22.8412V22.0061H152.318V22.8412H153.153ZM153.153 34.2003V35.0353H153.988V34.2003H153.153ZM152.656 34.2003H151.821V35.0353H152.656V34.2003ZM152.656 22.3445V21.5095H151.821V22.3445H152.656ZM177.05 22.3445V23.1795H177.885V22.3445H177.05ZM177.05 2.08075H177.885V1.24572H177.05V2.08075ZM104.826 2.08075V1.24572H103.991V2.08075H104.826ZM104.826 22.3445H103.991V23.1795H104.826V22.3445ZM129.339 22.3445H130.174V21.5095H129.339V22.3445ZM214.213 57.1476L213.963 57.9445L213.963 57.9446L214.213 57.1476ZM210.387 55.9382V55.1032L210.134 56.7338L210.387 55.9382ZM214.221 57.1501L213.971 57.9471L213.984 57.9511L213.997 57.9547L214.221 57.1501ZM214.229 57.1523L214.005 57.9569L214.006 57.9571L214.229 57.1523ZM221.059 59.7324L220.66 60.466L220.661 60.4662L221.059 59.7324ZM221.067 59.7366L220.669 60.4704L220.681 60.4772L220.694 60.4836L221.067 59.7366ZM221.075 59.7406L220.702 60.4876L220.703 60.4879L221.075 59.7406ZM222.861 61.1872L223.548 60.7131V60.7131L222.861 61.1872ZM222.094 65.4406L222.555 66.1369L222.562 66.1322L222.569 66.1274L222.094 65.4406ZM220.251 66.0785L220.4 66.9001L220.251 66.0785ZM207.446 64.8987L207.207 65.6988L207.212 65.7004L207.446 64.8987ZM198.782 61.7044L198.437 62.465L198.782 61.7044ZM192.494 58.5122L192.066 59.2289H192.066L192.494 58.5122ZM190.103 57.0822L190.532 56.3656L190.531 56.3653L190.103 57.0822ZM190.103 57.0819L189.674 57.7985L189.675 57.7988L190.103 57.0819ZM189.64 56.8053L190.069 56.0887L189.292 55.6238L188.891 56.4362L189.64 56.8053ZM179.153 78.088L178.404 77.7188L178.059 78.419L178.734 78.8104L179.153 78.088ZM179.554 78.3208L179.973 77.5983H179.973L179.554 78.3208ZM190.993 83.6024L191.28 82.8181L191.279 82.8178L190.993 83.6024ZM190.997 83.6039L190.711 84.3882L190.717 84.3907L190.724 84.3932L190.997 83.6039ZM191.001 83.6053L190.728 84.3945L190.729 84.3946L191.001 83.6053ZM203.861 87.0796L203.698 87.8985L203.698 87.8986L203.861 87.0796ZM203.866 87.0806L203.703 87.8996L203.711 87.9012L203.719 87.9027L203.866 87.0806ZM203.871 87.0815L203.724 87.9036L203.725 87.9036L203.871 87.0815ZM228.582 86.9575L228.768 87.7716L228.768 87.7715L228.582 86.9575ZM228.587 86.9564L228.773 87.7704L228.781 87.7687L228.788 87.7668L228.587 86.9564ZM228.591 86.9553L228.793 87.7657L228.793 87.7655L228.591 86.9553ZM239.149 82.3574L238.687 81.662V81.662L239.149 82.3574ZM246.726 73.9539L245.992 73.556L245.99 73.5591L246.726 73.9539ZM246.727 73.9518L247.461 74.3499L247.467 74.3392L246.727 73.9518ZM246.728 73.9497L245.989 73.562L245.988 73.5624L246.728 73.9497ZM249.204 55.9382L250.03 55.8184L249.926 55.1032H249.204V55.9382ZM248.702 55.9382V55.1032H247.734L247.876 56.0602L248.702 55.9382ZM246.288 73.7191L247.024 74.1139L247.028 74.1069L246.288 73.7191ZM228.471 86.4733L228.657 87.2874L228.665 87.2856L228.673 87.2836L228.471 86.4733ZM203.958 86.5925L203.795 87.4114L203.803 87.4131L203.812 87.4146L203.958 86.5925ZM191.163 83.1358L190.877 83.9204L190.884 83.9228L190.891 83.9251L191.163 83.1358ZM179.803 77.891L179.054 77.5219L178.709 78.2221L179.385 78.6135L179.803 77.891ZM189.848 57.5081L190.276 56.7915L189.499 56.3266L189.099 57.139L189.848 57.5081ZM192.239 58.9385L192.668 58.2218L192.239 58.9385ZM198.577 62.1568L198.232 62.9174L198.577 62.1568ZM207.306 65.3752L207.067 66.1752L207.072 66.1768L207.306 65.3752ZM222.373 65.852L222.835 66.5475L222.841 66.5434L222.847 66.5392L222.373 65.852ZM221.297 59.2961L220.898 60.0297L220.911 60.0368L220.924 60.0434L221.297 59.2961ZM214.361 56.6737L214.111 57.4705L214.125 57.4747L214.138 57.4784L214.361 56.6737ZM212.027 55.9382L212.279 55.1422L212.156 55.1032H212.027V55.9382ZM183.302 34.2003L182.476 34.3195L182.579 35.0353H183.302V34.2003ZM183.804 34.2003V35.0353H184.771L184.63 34.0788L183.804 34.2003ZM187.528 13.9541L186.844 13.4751V13.4751L187.528 13.9541ZM199.329 4.25068L199.67 5.01256L199.676 5.01001L199.329 4.25068ZM227.28 2.43409L227.062 3.24028L227.072 3.2429L227.081 3.24528L227.28 2.43409ZM238.231 6.03367L237.903 6.8016L237.909 6.8043L238.231 6.03367ZM247.227 10.0993L247.6 9.35199V9.35199L247.227 10.0993ZM247.681 10.3253L248.42 10.7125L248.815 9.95791L248.053 9.57797L247.681 10.3253ZM237.16 30.4269L236.737 31.1472L237.493 31.5904L237.899 30.8141L237.16 30.4269ZM236.71 30.1633L236.284 30.8813L236.288 30.8836L236.71 30.1633ZM236.709 30.163L237.136 29.4449L237.131 29.442L236.709 30.163ZM236.708 30.1621L236.286 30.8824L236.287 30.8831L236.708 30.1621ZM234.677 28.9713L234.255 29.6916V29.6916L234.677 28.9713ZM229.352 26.3772L229.68 25.6093L229.68 25.6092L229.352 26.3772ZM229.345 26.3743L228.995 27.1321L229.006 27.1374L229.018 27.1422L229.345 26.3743ZM229.339 26.3712L228.988 27.129L228.988 27.129L229.339 26.3712ZM222.11 23.6543L222.351 22.855V22.855L222.11 23.6543ZM209.8 23.385L210.172 24.1324L210.172 24.1323L209.8 23.385ZM208.57 24.4757L207.852 24.049V24.049L208.57 24.4757ZM209.859 29.2059L209.387 29.8947V29.8947L209.859 29.2059ZM215.104 31.5244L214.857 32.3222L214.864 32.3245L215.104 31.5244ZM223.596 34.1474L223.344 34.9437L223.354 34.9468L223.596 34.1474ZM223.77 34.2003V35.0353L224.013 33.4014L223.77 34.2003ZM222.111 34.2003L221.861 34.9969L221.983 35.0353H222.111V34.2003ZM214.959 31.9996L214.712 32.7974L214.72 32.7996L214.959 31.9996ZM209.578 29.6156L209.106 30.3044L209.578 29.6156ZM209.578 22.9405L209.206 22.1932L209.206 22.1932L209.578 22.9405ZM222.253 23.1789L222.495 22.3795L222.253 23.1789ZM229.547 25.9205L229.197 26.6783L229.208 26.6835L229.219 26.6883L229.547 25.9205ZM234.928 28.5428L234.506 29.2632L234.928 28.5428ZM236.961 29.7348L236.539 30.4551L237.295 30.8984L237.701 30.122L236.961 29.7348ZM247.006 10.5438L247.745 10.9311L248.14 10.1765L247.378 9.79651L247.006 10.5438ZM246.561 10.3233L246.929 9.57417V9.57417L246.561 10.3233ZM238.037 6.49109L237.709 7.259L237.716 7.26172L238.037 6.49109ZM227.156 2.91514L226.938 3.7213L226.948 3.72394L226.958 3.72634L227.156 2.91514ZM199.534 4.70311L199.875 5.46502L199.881 5.46243L199.534 4.70311ZM187.935 14.239L187.251 13.76V13.76L187.935 14.239ZM73.3106 87.2084V55.9382H71.6406V87.2084H73.3106ZM96.7865 86.3734H72.4756V88.0434H96.7865V86.3734ZM95.9514 55.9382V87.2084H97.6215V55.9382H95.9514ZM96.7865 55.1032H96.2898V56.7733H96.7865V55.1032ZM95.4548 55.9382V86.7117H97.1248V55.9382H95.4548ZM96.2898 85.8767H72.9722V87.5468H96.2898V85.8767ZM73.8073 86.7117V55.9382H72.1372V86.7117H73.8073ZM72.9722 55.1032H72.4756V56.7733H72.9722V55.1032ZM72.4756 35.0353H72.9722V33.3653H72.4756V35.0353ZM73.8073 34.2003V2.08075H72.1372V34.2003H73.8073ZM72.9722 2.91577H96.2898V1.24572H72.9722V2.91577ZM95.4548 2.08075V34.2003H97.1248V2.08075H95.4548ZM96.2898 35.0353H96.7865V33.3653H96.2898V35.0353ZM95.9514 1.58409V34.2003H97.6215V1.58409H95.9514ZM72.4756 2.41911H96.7865V0.749061H72.4756V2.41911ZM73.3106 34.2003V1.58409H71.6406V34.2003H73.3106ZM129.677 87.2084V55.9382H128.007V87.2084H129.677ZM153.153 86.3734H128.842V88.0434H153.153V86.3734ZM152.318 55.9382V87.2084H153.988V55.9382H152.318ZM153.153 55.1032H152.656V56.7733H153.153V55.1032ZM153.491 86.7117V55.9382H151.821V86.7117H153.491ZM129.339 87.5468H152.656V85.8767H129.339V87.5468ZM128.504 55.9382V86.7117H130.174V55.9382H128.504ZM129.339 55.1032H128.842V56.7733H129.339V55.1032ZM128.842 35.0353H129.339V33.3653H128.842V35.0353ZM129.677 34.2003V22.8412H128.007V34.2003H129.677ZM128.842 22.0061H104.329V23.6762H128.842V22.0061ZM105.164 22.8412V1.58409H103.494V22.8412H105.164ZM104.329 2.41911H177.547V0.749061H104.329V2.41911ZM176.712 1.58409V22.8412H178.382V1.58409H176.712ZM177.547 22.0061H153.153V23.6762H177.547V22.0061ZM152.318 22.8412V34.2003H153.988V22.8412H152.318ZM152.656 35.0353H153.153V33.3653H152.656V35.0353ZM153.491 34.2003V22.3445H151.821V34.2003H153.491ZM152.656 23.1795H177.05V21.5095H152.656V23.1795ZM177.885 22.3445V2.08075H176.215V22.3445H177.885ZM177.05 1.24572H104.826V2.91577H177.05V1.24572ZM103.991 2.08075V22.3445H105.661V2.08075H103.991ZM104.826 23.1795H129.339V21.5095H104.826V23.1795ZM128.504 22.3445V34.2003H130.174V22.3445H128.504ZM214.462 56.3508C213.249 55.9707 211.975 55.568 210.641 55.1427L210.134 56.7338C211.47 57.1599 212.747 57.5634 213.963 57.9445L214.462 56.3508ZM214.47 56.3532L214.462 56.3507L213.963 57.9446L213.971 57.9471L214.47 56.3532ZM214.452 56.3478L214.444 56.3455L213.997 57.9547L214.005 57.9569L214.452 56.3478ZM221.458 58.9988C219.674 58.0285 217.335 57.1461 214.451 56.3476L214.006 57.9571C216.821 58.7366 219.028 59.5782 220.66 60.466L221.458 58.9988ZM221.466 59.0028L221.458 58.9986L220.661 60.4662L220.669 60.4704L221.466 59.0028ZM221.448 58.9936L221.44 58.9896L220.694 60.4836L220.702 60.4876L221.448 58.9936ZM223.548 60.7131C223.07 60.0193 222.362 59.4491 221.447 58.9932L220.703 60.4879C221.431 60.8509 221.893 61.2543 222.173 61.6613L223.548 60.7131ZM224.266 63.1104C224.266 62.2131 224.029 61.4099 223.548 60.7131L222.173 61.6613C222.446 62.0567 222.596 62.5233 222.596 63.1104H224.266ZM222.569 66.1274C223.681 65.3586 224.266 64.3477 224.266 63.1104H222.596C222.596 63.7221 222.348 64.2502 221.62 64.7538L222.569 66.1274ZM220.4 66.9001C221.298 66.7375 222.024 66.4887 222.555 66.1369L221.634 64.7443C221.366 64.9215 220.887 65.1147 220.102 65.2568L220.4 66.9001ZM217.111 67.1439C218.399 67.1439 219.497 67.0638 220.4 66.9001L220.102 65.2568C219.329 65.3969 218.338 65.4739 217.111 65.4739V67.1439ZM207.212 65.7004C210.51 66.6623 213.81 67.1439 217.111 67.1439V65.4739C213.975 65.4739 210.832 65.0166 207.68 64.0971L207.212 65.7004ZM198.437 62.465C201.083 63.6639 204.007 64.7416 207.207 65.6988L207.686 64.0987C204.547 63.1599 201.695 62.1075 199.127 60.9439L198.437 62.465ZM192.066 59.2289C193.675 60.1916 195.801 61.2703 198.437 62.465L199.127 60.9439C196.52 59.7626 194.457 58.7133 192.923 57.7956L192.066 59.2289ZM189.675 57.7988L192.066 59.2289L192.923 57.7956L190.532 56.3656L189.675 57.7988ZM189.675 57.7988L189.675 57.7991L190.531 56.3653L190.531 56.365L189.675 57.7988ZM190.531 56.3652L190.069 56.0887L189.212 57.522L189.674 57.7985L190.531 56.3652ZM188.891 56.4362L178.404 77.7188L179.902 78.4571L190.389 57.1744L188.891 56.4362ZM178.734 78.8104L179.136 79.0432L179.973 77.5983L179.571 77.3655L178.734 78.8104ZM179.136 79.0432C182.638 81.0732 186.497 82.8534 190.707 84.387L191.279 82.8178C187.15 81.314 183.382 79.5739 179.973 77.5983L179.136 79.0432ZM190.707 84.3868L190.711 84.3882L191.284 82.8196L191.28 82.8181L190.707 84.3868ZM190.724 84.3932L190.728 84.3945L191.274 82.816L191.27 82.8146L190.724 84.3932ZM190.729 84.3946C194.932 85.845 199.255 87.0129 203.698 87.8985L204.024 86.2607C199.654 85.3895 195.404 84.2412 191.273 82.8159L190.729 84.3946ZM203.698 87.8986L203.703 87.8996L204.029 86.2617L204.024 86.2607L203.698 87.8986ZM203.719 87.9027L203.724 87.9036L204.017 86.2594L204.012 86.2585L203.719 87.9027ZM203.725 87.9036C208.257 88.7104 212.6 89.1162 216.753 89.1162V87.4462C212.709 87.4462 208.464 87.051 204.017 86.2594L203.725 87.9036ZM216.753 89.1162C220.837 89.1162 224.843 88.6683 228.768 87.7716L228.396 86.1435C224.594 87.0119 220.714 87.4462 216.753 87.4462V89.1162ZM228.768 87.7715L228.773 87.7704L228.4 86.1425L228.395 86.1436L228.768 87.7715ZM228.788 87.7668L228.793 87.7657L228.39 86.1449L228.385 86.146L228.788 87.7668ZM228.793 87.7655C232.759 86.7772 236.369 85.208 239.611 83.0529L238.687 81.662C235.612 83.7055 232.18 85.2003 228.389 86.145L228.793 87.7655ZM239.611 83.0529C242.91 80.8606 245.529 77.9513 247.462 74.3487L245.99 73.5591C244.182 76.929 241.748 79.628 238.687 81.662L239.611 83.0529ZM247.46 74.3519L247.461 74.3498L245.993 73.5539L245.992 73.556L247.46 74.3519ZM247.467 74.3392L247.468 74.3371L245.988 73.5624L245.987 73.5645L247.467 74.3392ZM247.468 74.3375C249.426 70.6032 250.37 66.0866 250.37 60.8456H248.7C248.7 65.892 247.79 70.1259 245.989 73.562L247.468 74.3375ZM250.37 60.8456C250.37 59.0669 250.258 57.3901 250.03 55.8184L248.377 56.0581C248.592 57.5404 248.7 59.1363 248.7 60.8456H250.37ZM249.204 55.1032H248.702V56.7733H249.204V55.1032ZM247.876 56.0602C248.093 57.5343 248.203 59.129 248.203 60.8456H249.874C249.874 59.0584 249.759 57.3814 249.528 55.8162L247.876 56.0602ZM248.203 60.8456C248.203 65.8342 247.304 69.9839 245.549 73.3313L247.028 74.1069C248.939 70.4613 249.874 66.0287 249.874 60.8456H248.203ZM245.552 73.3243C243.781 76.625 241.402 79.2614 238.412 81.2483L239.337 82.6393C242.565 80.494 245.128 77.6473 247.024 74.1139L245.552 73.3243ZM238.412 81.2483C235.387 83.2587 232.008 84.7313 228.269 85.6631L228.673 87.2836C232.587 86.3082 236.144 84.7612 239.337 82.6393L238.412 81.2483ZM228.285 85.6593C224.521 86.5193 220.677 86.9495 216.753 86.9495V88.6196C220.8 88.6196 224.769 88.1757 228.657 87.2874L228.285 85.6593ZM216.753 86.9495C212.741 86.9495 208.526 86.5575 204.104 85.7704L203.812 87.4146C208.319 88.2169 212.633 88.6196 216.753 88.6196V86.9495ZM204.121 85.7736C199.773 84.9067 195.544 83.7643 191.436 82.3464L190.891 83.9251C195.072 85.3681 199.374 86.5301 203.795 87.4114L204.121 85.7736ZM191.449 82.3512C187.344 80.8562 183.603 79.1281 180.222 77.1686L179.385 78.6135C182.859 80.6273 186.691 82.3956 190.877 83.9204L191.449 82.3512ZM180.552 78.2602L190.597 57.8772L189.099 57.139L179.054 77.5219L180.552 78.2602ZM192.668 58.2218L190.276 56.7915L189.419 58.2247L191.811 59.6551L192.668 58.2218ZM198.922 61.3962C196.306 60.211 194.225 59.1529 192.668 58.2218L191.811 59.6551C193.443 60.6312 195.587 61.7187 198.232 62.9174L198.922 61.3962ZM207.545 64.5752C204.387 63.6308 201.513 62.5706 198.922 61.3962L198.232 62.9174C200.902 64.127 203.847 65.2124 207.067 66.1752L207.545 64.5752ZM217.111 65.9706C213.925 65.9706 210.736 65.5059 207.54 64.5736L207.072 66.1768C210.413 67.1516 213.761 67.6406 217.111 67.6406V65.9706ZM221.911 65.1565C221.565 65.3864 221.011 65.5969 220.191 65.7455C219.379 65.8927 218.356 65.9706 217.111 65.9706V67.6406C218.417 67.6406 219.547 67.5595 220.489 67.3888C221.422 67.2196 222.224 66.9533 222.835 66.5475L221.911 65.1565ZM223.092 63.1104C223.092 63.909 222.744 64.5815 221.898 65.1647L222.847 66.5392C224.075 65.6921 224.762 64.5369 224.762 63.1104H223.092ZM220.924 60.0434C221.708 60.4341 222.243 60.887 222.582 61.3793C222.917 61.8643 223.092 62.4311 223.092 63.1104H224.762C224.762 62.121 224.499 61.2176 223.957 60.4312C223.42 59.652 222.639 59.0322 221.669 58.5487L220.924 60.0434ZM214.138 57.4784C216.974 58.2636 219.22 59.1173 220.898 60.0297L221.695 58.5625C219.866 57.5677 217.488 56.6731 214.584 55.869L214.138 57.4784ZM211.775 56.7343C212.577 56.9884 213.356 57.2338 214.111 57.4705L214.611 55.8769C213.857 55.6407 213.08 55.3958 212.279 55.1422L211.775 56.7343ZM212.027 55.1032H210.387V56.7733H212.027V55.1032ZM183.302 35.0353H183.804V33.3653H183.302V35.0353ZM184.129 34.0812C183.942 32.7875 183.849 31.4182 183.849 29.9732H182.178C182.178 31.49 182.277 32.9394 182.476 34.3195L184.129 34.0812ZM183.849 29.9732C183.849 23.7493 185.31 18.5763 188.212 14.4331L186.844 13.4751C183.706 17.9561 182.178 23.4834 182.178 29.9732H183.849ZM188.212 14.4331C191.125 10.2729 194.943 7.13363 199.67 5.01254L198.987 3.48881C193.99 5.73073 189.934 9.06302 186.844 13.4751L188.212 14.4331ZM199.676 5.01001C204.492 2.80658 209.665 1.70392 215.198 1.70392V0.0338712C209.436 0.0338712 204.025 1.18381 198.981 3.49135L199.676 5.01001ZM215.198 1.70392C219.313 1.70392 223.267 2.21635 227.062 3.24028L227.497 1.6279C223.554 0.563974 219.453 0.0338712 215.198 0.0338712V1.70392ZM227.081 3.24528C230.969 4.19453 234.576 5.38019 237.903 6.80157L238.559 5.26578C235.139 3.80498 231.445 2.59163 227.478 1.6229L227.081 3.24528ZM237.909 6.8043C241.331 8.23224 244.313 9.57971 246.855 10.8467L247.6 9.35199C245.016 8.06427 241.999 6.70134 238.552 5.26305L237.909 6.8043ZM246.855 10.8467L247.308 11.0727L248.053 9.57797L247.6 9.35199L246.855 10.8467ZM246.941 9.9381L236.42 30.0397L237.899 30.8141L248.42 10.7125L246.941 9.9381ZM237.582 29.7066L237.132 29.4429L236.288 30.8836L236.737 31.1472L237.582 29.7066ZM236.283 30.881L236.284 30.8813L237.136 29.4453L237.136 29.445L236.283 30.881ZM236.287 30.8831L236.288 30.884L237.131 29.442L237.129 29.4411L236.287 30.8831ZM234.255 29.6916L236.286 30.8824L237.13 29.4418L235.1 28.2509L234.255 29.6916ZM229.024 27.1451C231.229 28.0871 232.967 28.9363 234.255 29.6916L235.1 28.2509C233.727 27.4463 231.919 26.5658 229.68 25.6093L229.024 27.1451ZM229.018 27.1422L229.024 27.1451L229.68 25.6092L229.673 25.6063L229.018 27.1422ZM228.988 27.129L228.995 27.1321L229.696 25.6165L229.689 25.6134L228.988 27.129ZM221.868 24.4537C224.446 25.2324 226.819 26.1249 228.988 27.129L229.69 25.6134C227.442 24.573 224.995 23.6537 222.351 22.855L221.868 24.4537ZM214.481 23.3186C216.892 23.3186 219.353 23.6938 221.868 24.4537L222.351 22.855C219.691 22.0515 217.067 21.6485 214.481 21.6485V23.3186ZM210.172 24.1323C211.205 23.6177 212.617 23.3186 214.481 23.3186V21.6485C212.455 21.6485 210.764 21.9712 209.427 22.6377L210.172 24.1323ZM209.288 24.9024C209.458 24.6156 209.73 24.3527 210.172 24.1324L209.427 22.6377C208.74 22.9803 208.209 23.4492 207.852 24.049L209.288 24.9024ZM208.996 26.1589C208.996 25.5933 209.115 25.1937 209.288 24.9024L207.852 24.049C207.496 24.6476 207.326 25.3557 207.326 26.1589H208.996ZM210.331 28.5171C209.383 27.8678 208.996 27.11 208.996 26.1589H207.326C207.326 27.7108 208.028 28.9634 209.387 29.8947L210.331 28.5171ZM215.35 30.7267C213.104 30.0316 211.452 29.2853 210.331 28.5171L209.387 29.8947C210.701 30.7955 212.53 31.6021 214.857 32.3222L215.35 30.7267ZM223.847 33.3512C220.577 32.3175 217.742 31.4418 215.343 30.7244L214.864 32.3245C217.252 33.0387 220.079 33.9117 223.344 34.9436L223.847 33.3512ZM224.013 33.4014C223.954 33.3836 223.896 33.3658 223.837 33.3481L223.354 34.9468C223.412 34.9642 223.47 34.9817 223.527 34.9993L224.013 33.4014ZM222.111 35.0353H223.77V33.3653H222.111V35.0353ZM214.72 32.7996C216.774 33.414 219.154 34.1464 221.861 34.9969L222.362 33.4037C219.65 32.5515 217.262 31.8167 215.198 31.1996L214.72 32.7996ZM209.106 30.3044C210.478 31.2449 212.36 32.0697 214.712 32.7973L215.206 31.2019C212.934 30.4991 211.229 29.7346 210.05 28.9268L209.106 30.3044ZM206.83 26.1589C206.83 27.89 207.625 29.2895 209.106 30.3044L210.05 28.9268C208.98 28.1935 208.5 27.2885 208.5 26.1589H206.83ZM209.206 22.1932C208.445 22.5721 207.837 23.1022 207.425 23.7952C207.015 24.4853 206.83 25.2853 206.83 26.1589H208.5C208.5 25.5226 208.633 25.0312 208.861 24.6486C209.087 24.2688 209.435 23.9446 209.951 23.6878L209.206 22.1932ZM214.481 21.1519C212.407 21.1519 210.633 21.4815 209.206 22.1932L209.95 23.6878C211.074 23.1281 212.569 22.8219 214.481 22.8219V21.1519ZM222.495 22.3795C219.792 21.5631 217.12 21.1519 214.481 21.1519V22.8219C216.944 22.8219 219.453 23.2054 222.012 23.9782L222.495 22.3795ZM229.898 25.1627C227.627 24.1115 225.158 23.1842 222.495 22.3795L222.012 23.9782C224.609 24.7629 227.004 25.6634 229.197 26.6783L229.898 25.1627ZM235.351 27.8225C233.953 27.0032 232.125 26.1134 229.875 25.1526L229.219 26.6883C231.434 27.6347 233.193 28.4932 234.506 29.2632L235.351 27.8225ZM237.384 29.0145L235.351 27.8225L234.506 29.2632L236.539 30.4551L237.384 29.0145ZM237.701 30.122L247.745 10.9311L246.266 10.1566L236.221 29.3476L237.701 30.122ZM247.378 9.79651C247.23 9.72263 247.08 9.64852 246.929 9.57417L246.192 11.0725C246.34 11.1457 246.488 11.2186 246.633 11.2912L247.378 9.79651ZM246.929 9.57417C244.459 8.35792 241.601 7.07338 238.359 5.72047L237.716 7.26172C240.934 8.60479 243.759 9.87508 246.192 11.0725L246.929 9.57417ZM238.365 5.72321C234.971 4.2731 231.3 3.06726 227.354 2.10393L226.958 3.72634C230.824 4.67018 234.407 5.84832 237.709 7.25898L238.365 5.72321ZM227.374 2.10898C223.473 1.0559 219.414 0.530532 215.198 0.530532V2.20058C219.273 2.20058 223.186 2.70826 226.938 3.7213L227.374 2.10898ZM215.198 0.530532C209.503 0.530532 204.163 1.6667 199.186 3.9438L199.881 5.46243C204.63 3.28945 209.732 2.20058 215.198 2.20058V0.530532ZM199.192 3.94123C194.274 6.14722 190.288 9.42235 187.251 13.76L188.619 14.718C191.48 10.6323 195.227 7.55016 199.875 5.465L199.192 3.94123ZM187.251 13.76C184.183 18.1406 182.675 23.5625 182.675 29.9732H184.345C184.345 23.8284 185.787 18.7608 188.619 14.718L187.251 13.76ZM182.675 29.9732C182.675 31.4959 182.776 32.9458 182.978 34.3218L184.63 34.0788C184.441 32.791 184.345 31.4228 184.345 29.9732H182.675Z" fill="#626AF5" mask="url(#path-1-outside-1_458_785)"/><path d="M47.3926 50.49V39.5588H54.6463V41.4642H49.7037V43.5993H51.4811C52.3458 43.5993 53.0913 43.7398 53.7175 44.0209C54.3474 44.2985 54.8331 44.6917 55.1747 45.2005C55.5163 45.7094 55.6871 46.3089 55.6871 46.9993C55.6871 47.686 55.5163 48.2927 55.1747 48.8193C54.8331 49.3424 54.3474 49.7516 53.7175 50.047C53.0913 50.3423 52.3458 50.49 51.4811 50.49H47.3926ZM49.7037 48.6325H51.4811C51.8939 48.6325 52.2426 48.5578 52.5273 48.4084C52.8119 48.2553 53.0272 48.0543 53.1731 47.8052C53.3226 47.5526 53.3973 47.2768 53.3973 46.9779C53.3973 46.5438 53.2318 46.1773 52.9009 45.8784C52.5735 45.5759 52.1003 45.4247 51.4811 45.4247H49.7037V48.6325ZM58.9953 50.49V48.6325L59.3049 48.6058C59.7034 48.5738 60.0255 48.4226 60.271 48.1522C60.5165 47.8782 60.6998 47.4423 60.8208 46.8445C60.9453 46.2431 61.0254 45.4354 61.0609 44.4212L61.2424 39.5588H68.6616V50.49H66.4145V41.4109H63.3881L63.2173 45.2165C63.1604 46.4406 63.0145 47.4405 62.7796 48.2162C62.5483 48.9919 62.1783 49.5648 61.6694 49.9349C61.1641 50.305 60.472 50.49 59.5931 50.49H58.9953ZM72.9719 39.5588H75.2778V46.4335H75.3685L80.0922 39.5588H82.1151V50.49H79.804V43.6099H79.7239L74.9735 50.49H72.9719V39.5588ZM96.9604 48.6432L96.827 53.0733H94.6279V50.49H93.8593V48.6432H96.9604ZM86.4295 50.49V39.5588H88.6499V48.6325H93.1975V39.5588H95.4446V50.49H86.4295ZM106.651 39.5588H109.502L112.512 46.9032H112.64L115.65 39.5588H118.501V50.49H116.259V43.3751H116.168L113.339 50.4366H111.813L108.984 43.3484H108.893V50.49H106.651V39.5588ZM122.81 50.49V39.5588H130.175V41.4642H125.121V44.069H129.796V45.9744H125.121V48.5845H130.197V50.49H122.81ZM134.418 50.49V39.5588H138.73C139.56 39.5588 140.266 39.7171 140.849 40.0338C141.433 40.3469 141.878 40.7828 142.184 41.3415C142.493 41.8966 142.648 42.5371 142.648 43.263C142.648 43.9889 142.492 44.6294 142.178 45.1845C141.865 45.7396 141.412 46.1719 140.817 46.4815C140.227 46.7911 139.512 46.9459 138.672 46.9459H135.923V45.0938H138.298C138.743 45.0938 139.109 45.0173 139.398 44.8642C139.689 44.7077 139.906 44.4924 140.049 44.2184C140.195 43.9409 140.268 43.6224 140.268 43.263C140.268 42.9 140.195 42.5833 140.049 42.3129C139.906 42.0389 139.689 41.8272 139.398 41.6777C139.106 41.5247 138.736 41.4482 138.287 41.4482H136.729V50.49H134.418ZM146.997 39.5588H149.244V43.0815C149.244 43.5014 149.317 43.8394 149.463 44.0956C149.609 44.3483 149.835 44.5315 150.141 44.6454C150.451 44.7557 150.847 44.8109 151.331 44.8109C151.502 44.8109 151.703 44.8055 151.934 44.7949C152.166 44.7806 152.404 44.7611 152.65 44.7361C152.899 44.7112 153.134 44.681 153.354 44.6454C153.575 44.6098 153.758 44.5689 153.904 44.5226V46.3481C153.755 46.3979 153.568 46.4424 153.344 46.4815C153.123 46.5171 152.89 46.5491 152.644 46.5776C152.399 46.6025 152.16 46.6221 151.929 46.6363C151.698 46.6505 151.499 46.6577 151.331 46.6577C150.452 46.6577 149.687 46.5331 149.036 46.284C148.385 46.0314 147.882 45.6417 147.526 45.1151C147.173 44.5885 146.997 43.9106 146.997 43.0815V39.5588ZM153.504 39.5588H155.761V50.49H153.504V39.5588ZM160.452 50.49V39.5588H167.818V41.4642H162.763V44.069H167.439V45.9744H162.763V48.5845H167.839V50.49H160.452ZM172.06 50.49V39.5588H174.371V44.069H179.063V39.5588H181.369V50.49H179.063V45.9744H174.371V50.49H172.06ZM185.087 53.1267V48.6485H185.829C186.081 48.4671 186.313 48.2109 186.523 47.8799C186.732 47.5455 186.912 47.0847 187.062 46.4975C187.211 45.9068 187.318 45.1347 187.382 44.181L187.691 39.5588H194.924V48.6485H196.119V53.116H193.899V50.49H187.307V53.1267H185.087ZM188.497 48.6485H192.703V41.4642H189.773L189.602 44.181C189.556 44.9034 189.48 45.5439 189.373 46.1025C189.27 46.6612 189.143 47.1505 188.994 47.5704C188.848 47.9867 188.682 48.3461 188.497 48.6485ZM201.814 50.49H199.337L203.111 39.5588H206.089L209.857 50.49H207.381L204.642 42.0567H204.557L201.814 50.49ZM201.659 46.1933H207.509V47.9974H201.659V46.1933ZM213.578 39.5588H215.884V46.4335H215.974L220.698 39.5588H222.721V50.49H220.41V43.6099H220.33L215.579 50.49H213.578V39.5588ZM219.214 36.6978H220.799C220.796 37.3455 220.556 37.8668 220.079 38.2617C219.606 38.6567 218.965 38.8542 218.157 38.8542C217.346 38.8542 216.704 38.6567 216.23 38.2617C215.757 37.8668 215.521 37.3455 215.521 36.6978H217.095C217.092 36.9434 217.17 37.164 217.33 37.3597C217.494 37.5554 217.769 37.6533 218.157 37.6533C218.535 37.6533 218.805 37.5572 218.969 37.365C219.132 37.1729 219.214 36.9505 219.214 36.6978ZM231.012 50.6394C230.215 50.6394 229.505 50.5024 228.882 50.2285C228.263 49.9509 227.774 49.5702 227.414 49.0862C227.058 48.5987 226.875 48.0365 226.864 47.3996H229.192C229.206 47.6664 229.293 47.9013 229.453 48.1041C229.617 48.3034 229.834 48.4582 230.104 48.5685C230.375 48.6788 230.679 48.7339 231.017 48.7339C231.369 48.7339 231.681 48.6717 231.951 48.5471C232.222 48.4226 232.433 48.25 232.586 48.0294C232.739 47.8088 232.816 47.5544 232.816 47.2661C232.816 46.9743 232.734 46.7164 232.57 46.4922C232.41 46.2645 232.179 46.0865 231.876 45.9584C231.578 45.8303 231.222 45.7663 230.809 45.7663H229.789V44.069H230.809C231.158 44.069 231.465 44.0085 231.732 43.8875C232.003 43.7665 232.213 43.5993 232.362 43.3858C232.512 43.1687 232.586 42.9161 232.586 42.6278C232.586 42.3538 232.52 42.1136 232.389 41.9073C232.261 41.6973 232.079 41.5336 231.844 41.4162C231.613 41.2988 231.343 41.2401 231.033 41.2401C230.72 41.2401 230.434 41.297 230.174 41.4109C229.914 41.5212 229.706 41.6795 229.549 41.8859C229.393 42.0923 229.309 42.3343 229.298 42.6118H227.083C227.094 41.982 227.274 41.4269 227.622 40.9465C227.971 40.4661 228.441 40.0907 229.032 39.8203C229.626 39.5463 230.297 39.4093 231.044 39.4093C231.798 39.4093 232.458 39.5463 233.024 39.8203C233.59 40.0943 234.029 40.4643 234.342 40.9305C234.659 41.3931 234.816 41.9126 234.812 42.489C234.816 43.1011 234.625 43.6117 234.241 44.0209C233.86 44.4301 233.364 44.6899 232.752 44.8002V44.8856C233.556 44.9888 234.168 45.2681 234.588 45.7236C235.011 46.1755 235.221 46.7413 235.218 47.4209C235.221 48.0436 235.042 48.597 234.679 49.0809C234.319 49.5648 233.823 49.9456 233.189 50.2231C232.556 50.5007 231.83 50.6394 231.012 50.6394ZM239.348 39.5588H241.654V46.4335H241.744L246.468 39.5588H248.491V50.49H246.18V43.6099H246.1L241.349 50.49H239.348V39.5588ZM252.805 50.49V39.5588H255.117V44.069H259.808V39.5588H262.114V50.49H259.808V45.9744H255.117V50.49H252.805ZM273.678 39.5588V41.4642H268.736V50.49H266.424V39.5588H273.678Z" fill="#fff"/><path d="M76.8399 93.3669V100.681H75.7399V94.3098H72.2971V100.681H71.1971V93.3669H76.8399ZM80.5387 100.681V93.3669H83.1458C83.7148 93.3669 84.1862 93.4705 84.56 93.6776C84.9338 93.8848 85.2136 94.1681 85.3993 94.5276C85.585 94.8847 85.6779 95.2871 85.6779 95.7347C85.6779 96.1847 85.5838 96.5895 85.3957 96.949C85.21 97.3061 84.9291 97.5894 84.5529 97.799C84.1791 98.0061 83.7089 98.1097 83.1422 98.1097H81.3494V97.174H83.0422C83.4017 97.174 83.6934 97.1121 83.9172 96.9883C84.141 96.8621 84.3053 96.6906 84.4101 96.474C84.5148 96.2573 84.5672 96.0109 84.5672 95.7347C84.5672 95.4585 84.5148 95.2133 84.4101 94.999C84.3053 94.7847 84.1398 94.6169 83.9136 94.4955C83.6898 94.374 83.3946 94.3133 83.0279 94.3133H81.6423V100.681H80.5387ZM95.3364 97.024C95.3364 97.8049 95.1935 98.4763 94.9078 99.0382C94.6221 99.5977 94.2305 100.029 93.7329 100.331C93.2376 100.631 92.6746 100.781 92.0436 100.781C91.4103 100.781 90.8448 100.631 90.3472 100.331C89.852 100.029 89.4615 99.5965 89.1758 99.0346C88.8901 98.4727 88.7473 97.8025 88.7473 97.024C88.7473 96.243 88.8901 95.5728 89.1758 95.0133C89.4615 94.4514 89.852 94.0205 90.3472 93.7205C90.8448 93.4181 91.4103 93.2669 92.0436 93.2669C92.6746 93.2669 93.2376 93.4181 93.7329 93.7205C94.2305 94.0205 94.6221 94.4514 94.9078 95.0133C95.1935 95.5728 95.3364 96.243 95.3364 97.024ZM94.2436 97.024C94.2436 96.4287 94.1471 95.9276 93.9543 95.5204C93.7638 95.1109 93.5019 94.8014 93.1686 94.5919C92.8377 94.38 92.4627 94.274 92.0436 94.274C91.6222 94.274 91.246 94.38 90.9151 94.5919C90.5841 94.8014 90.3222 95.1109 90.1294 95.5204C89.9389 95.9276 89.8437 96.4287 89.8437 97.024C89.8437 97.6192 89.9389 98.1216 90.1294 98.5311C90.3222 98.9382 90.5841 99.2477 90.9151 99.4596C91.246 99.6691 91.6222 99.7739 92.0436 99.7739C92.4627 99.7739 92.8377 99.6691 93.1686 99.4596C93.5019 99.2477 93.7638 98.9382 93.9543 98.5311C94.1471 98.1216 94.2436 97.6192 94.2436 97.024ZM98.7236 100.681V93.3669H103.309V94.3169H99.8272V96.5454H103.07V97.4918H99.8272V99.7311H103.352V100.681H98.7236ZM111.134 100.681L108.677 97.4025H107.898V100.681H106.795V93.3669H107.898V96.4561H108.259L111.023 93.3669H112.37L109.445 96.6418L112.48 100.681H111.134ZM115.153 94.3169V93.3669H120.814V94.3169H118.532V100.681H117.432V94.3169H115.153ZM124.851 96.3168H126.822C127.365 96.3168 127.827 96.4049 128.208 96.5811C128.589 96.7573 128.88 97.0061 129.08 97.3275C129.282 97.649 129.382 98.0275 129.38 98.4632C129.382 98.8989 129.282 99.2834 129.08 99.6168C128.88 99.9501 128.589 100.211 128.208 100.399C127.827 100.587 127.365 100.681 126.822 100.681H124.083V93.3669H125.19V99.7525H126.822C127.139 99.7525 127.406 99.6906 127.622 99.5668C127.841 99.443 128.007 99.2823 128.119 99.0846C128.233 98.887 128.29 98.6751 128.29 98.4489C128.29 98.1204 128.164 97.8382 127.912 97.6025C127.659 97.3644 127.296 97.2454 126.822 97.2454H124.851V96.3168ZM131.162 93.3669V100.681H130.055V93.3669H131.162ZM139.452 100.681V93.3669H142.059C142.628 93.3669 143.1 93.4705 143.473 93.6776C143.847 93.8848 144.127 94.1681 144.313 94.5276C144.498 94.8847 144.591 95.2871 144.591 95.7347C144.591 96.1847 144.497 96.5895 144.309 96.949C144.123 97.3061 143.843 97.5894 143.466 97.799C143.093 98.0061 142.622 98.1097 142.056 98.1097H140.263V97.174H141.956C142.315 97.174 142.607 97.1121 142.831 96.9883C143.054 96.8621 143.219 96.6906 143.323 96.474C143.428 96.2573 143.481 96.0109 143.481 95.7347C143.481 95.4585 143.428 95.2133 143.323 94.999C143.219 94.7847 143.053 94.6169 142.827 94.4955C142.603 94.374 142.308 94.3133 141.941 94.3133H140.556V100.681H139.452ZM148.414 100.781V99.8096H148.854C149.037 99.8096 149.188 99.7787 149.307 99.7168C149.429 99.6549 149.527 99.5715 149.604 99.4668C149.682 99.3596 149.748 99.243 149.8 99.1168L149.904 98.8561L147.332 93.3669H148.504L150.421 97.5954L152.128 93.3669H153.286L150.757 99.4132C150.65 99.6561 150.526 99.881 150.386 100.088C150.248 100.295 150.063 100.463 149.832 100.592C149.601 100.718 149.295 100.781 148.914 100.781H148.414ZM156.487 93.3669H157.576V95.7811C157.576 96.1169 157.635 96.3823 157.751 96.5776C157.868 96.7704 158.037 96.9073 158.259 96.9883C158.482 97.0692 158.754 97.1097 159.073 97.1097C159.242 97.1097 159.413 97.1037 159.587 97.0918C159.763 97.0775 159.938 97.0585 160.112 97.0347C160.286 97.0085 160.454 96.9787 160.616 96.9454C160.78 96.9097 160.932 96.8704 161.073 96.8275V97.7668C160.935 97.812 160.788 97.8525 160.633 97.8882C160.481 97.9216 160.322 97.9513 160.155 97.9775C159.988 98.0013 159.814 98.0204 159.633 98.0347C159.453 98.0489 159.266 98.0561 159.073 98.0561C158.539 98.0561 158.079 97.9799 157.691 97.8275C157.305 97.6728 157.007 97.4287 156.798 97.0954C156.591 96.7621 156.487 96.324 156.487 95.7811V93.3669ZM160.908 93.3669H162.001V100.681H160.908V93.3669ZM165.708 100.681V93.3669H166.812V96.5454H170.458V93.3669H171.565V100.681H170.458V97.4918H166.812V100.681H165.708ZM181.537 97.024C181.537 97.8049 181.394 98.4763 181.108 99.0382C180.823 99.5977 180.431 100.029 179.934 100.331C179.438 100.631 178.875 100.781 178.244 100.781C177.611 100.781 177.045 100.631 176.548 100.331C176.053 100.029 175.662 99.5965 175.376 99.0346C175.091 98.4727 174.948 97.8025 174.948 97.024C174.948 96.243 175.091 95.5728 175.376 95.0133C175.662 94.4514 176.053 94.0205 176.548 93.7205C177.045 93.4181 177.611 93.2669 178.244 93.2669C178.875 93.2669 179.438 93.4181 179.934 93.7205C180.431 94.0205 180.823 94.4514 181.108 95.0133C181.394 95.5728 181.537 96.243 181.537 97.024ZM180.444 97.024C180.444 96.4287 180.348 95.9276 180.155 95.5204C179.964 95.1109 179.703 94.8014 179.369 94.5919C179.038 94.38 178.663 94.274 178.244 94.274C177.823 94.274 177.447 94.38 177.116 94.5919C176.785 94.8014 176.523 95.1109 176.33 95.5204C176.14 95.9276 176.044 96.4287 176.044 97.024C176.044 97.6192 176.14 98.1216 176.33 98.5311C176.523 98.9382 176.785 99.2477 177.116 99.4596C177.447 99.6691 177.823 99.7739 178.244 99.7739C178.663 99.7739 179.038 99.6691 179.369 99.4596C179.703 99.2477 179.964 98.9382 180.155 98.5311C180.348 98.1216 180.444 97.6192 180.444 97.024ZM184.924 93.3669H186.017V98.7382H186.085L189.806 93.3669H190.828V100.681H189.724V95.3169H189.656L185.942 100.681H184.924V93.3669ZM188.578 91.5098H189.456C189.456 91.9122 189.313 92.2396 189.028 92.4919C188.744 92.7419 188.361 92.8669 187.878 92.8669C187.397 92.8669 187.015 92.7419 186.731 92.4919C186.448 92.2396 186.306 91.9122 186.306 91.5098H187.181C187.181 91.6884 187.234 91.8467 187.339 91.9848C187.443 92.1205 187.623 92.1884 187.878 92.1884C188.128 92.1884 188.306 92.1205 188.413 91.9848C188.523 91.8491 188.578 91.6908 188.578 91.5098ZM199.122 100.681V93.3669H201.729C202.298 93.3669 202.769 93.4705 203.143 93.6776C203.517 93.8848 203.797 94.1681 203.982 94.5276C204.168 94.8847 204.261 95.2871 204.261 95.7347C204.261 96.1847 204.167 96.5895 203.979 96.949C203.793 97.3061 203.512 97.5894 203.136 97.799C202.762 98.0061 202.292 98.1097 201.725 98.1097H199.933V97.174H201.625C201.985 97.174 202.277 97.1121 202.5 96.9883C202.724 96.8621 202.888 96.6906 202.993 96.474C203.098 96.2573 203.15 96.0109 203.15 95.7347C203.15 95.4585 203.098 95.2133 202.993 94.999C202.888 94.7847 202.723 94.6169 202.497 94.4955C202.273 94.374 201.978 94.3133 201.611 94.3133H200.225V100.681H199.122ZM207.408 100.681H206.237L208.869 93.3669H210.144L212.776 100.681H211.604L209.537 94.6955H209.479L207.408 100.681ZM207.604 97.8168H211.404V98.7454H207.604V97.8168ZM215.843 100.681V93.3669H220.404V94.3169H216.947V96.3168H218.583C219.125 96.3168 219.586 96.4049 219.965 96.5811C220.346 96.7573 220.636 97.0061 220.836 97.3275C221.039 97.649 221.14 98.0275 221.14 98.4632C221.14 98.8989 221.039 99.2834 220.836 99.6168C220.636 99.9501 220.346 100.211 219.965 100.399C219.586 100.587 219.125 100.681 218.583 100.681H215.843ZM216.947 99.7525H218.583C218.897 99.7525 219.162 99.6906 219.379 99.5668C219.598 99.443 219.764 99.2823 219.875 99.0846C219.99 98.887 220.047 98.6751 220.047 98.4489C220.047 98.1204 219.921 97.8382 219.668 97.6025C219.416 97.3644 219.054 97.2454 218.583 97.2454H216.947V99.7525ZM230.808 97.024C230.808 97.8049 230.665 98.4763 230.379 99.0382C230.094 99.5977 229.702 100.029 229.205 100.331C228.709 100.631 228.146 100.781 227.515 100.781C226.882 100.781 226.316 100.631 225.819 100.331C225.324 100.029 224.933 99.5965 224.647 99.0346C224.362 98.4727 224.219 97.8025 224.219 97.024C224.219 96.243 224.362 95.5728 224.647 95.0133C224.933 94.4514 225.324 94.0205 225.819 93.7205C226.316 93.4181 226.882 93.2669 227.515 93.2669C228.146 93.2669 228.709 93.4181 229.205 93.7205C229.702 94.0205 230.094 94.4514 230.379 95.0133C230.665 95.5728 230.808 96.243 230.808 97.024ZM229.715 97.024C229.715 96.4287 229.619 95.9276 229.426 95.5204C229.235 95.1109 228.974 94.8014 228.64 94.5919C228.309 94.38 227.934 94.274 227.515 94.274C227.094 94.274 226.718 94.38 226.387 94.5919C226.056 94.8014 225.794 95.1109 225.601 95.5204C225.411 95.9276 225.315 96.4287 225.315 97.024C225.315 97.6192 225.411 98.1216 225.601 98.5311C225.794 98.9382 226.056 99.2477 226.387 99.4596C226.718 99.6691 227.094 99.7739 227.515 99.7739C227.934 99.7739 228.309 99.6691 228.64 99.4596C228.974 99.2477 229.235 98.9382 229.426 98.5311C229.619 98.1216 229.715 97.6192 229.715 97.024ZM233.52 94.3169V93.3669H239.181V94.3169H236.899V100.681H235.799V94.3169H233.52ZM243.218 96.3168H245.19C245.732 96.3168 246.194 96.4049 246.575 96.5811C246.956 96.7573 247.247 97.0061 247.447 97.3275C247.649 97.649 247.749 98.0275 247.747 98.4632C247.749 98.8989 247.649 99.2834 247.447 99.6168C247.247 99.9501 246.956 100.211 246.575 100.399C246.194 100.587 245.732 100.681 245.19 100.681H242.45V93.3669H243.557V99.7525H245.19C245.506 99.7525 245.773 99.6906 245.989 99.5668C246.209 99.443 246.374 99.2823 246.486 99.0846C246.6 98.887 246.657 98.6751 246.657 98.4489C246.657 98.1204 246.531 97.8382 246.279 97.6025C246.026 97.3644 245.663 97.2454 245.19 97.2454H243.218V96.3168ZM249.529 93.3669V100.681H248.422V93.3669H249.529Z" fill="#626AF5"/></svg>