<svg width="229" height="90" viewBox="0 0 229 90" fill="none" xmlns="http://www.w3.org/2000/svg"><mask id="path-1-outside-1_458_786" maskUnits="userSpaceOnUse" x="25.476" y="0" width="179" height="90" fill="#000"><path fill="#fff" d="M25.476 0H204.476V90H25.476z"/><path fill-rule="evenodd" clip-rule="evenodd" d="M26.4756 56.0693V87.3395H50.7865V56.0693H50.2898V86.8428H26.9722V56.0693H26.4756ZM26.4756 34.3314H26.9722V2.21185H50.2898V34.3314H50.7865V1.71519H26.4756V34.3314ZM82.8422 56.0693V87.3395H107.153V56.0693H106.656V86.8428H83.3389V56.0693H82.8422ZM83.3389 34.3314H82.8422V22.9723H58.3289V1.71519H131.547V22.9723H107.153V34.3314H106.656V22.4756H131.05V2.21185H58.8256V22.4756H83.3389V34.3314ZM164.387 56.0693C165.723 56.495 166.998 56.8982 168.213 57.2787L168.221 57.2812L168.229 57.2835C171.078 58.0724 173.351 58.9344 175.059 59.8635L175.067 59.8677L175.075 59.8717C175.897 60.2811 176.481 60.7679 176.861 61.3183C177.237 61.8644 177.431 62.4993 177.431 63.2415C177.431 64.166 177.014 64.9355 176.094 65.5717C175.695 65.8362 175.092 66.0572 174.251 66.2096C173.413 66.3615 172.369 66.44 171.111 66.44C167.892 66.44 164.671 65.9706 161.446 65.0298C158.277 64.0819 155.389 63.0168 152.782 61.8355C150.16 60.6476 148.066 59.5835 146.494 58.6433L144.103 57.2133L144.103 57.213L143.64 56.9364L133.153 78.2191L133.554 78.4519C137.01 80.4547 140.823 82.2148 144.993 83.7336L144.997 83.735L145.001 83.7364C149.168 85.1742 153.455 86.3323 157.861 87.2107L157.866 87.2117L157.871 87.2126C162.361 88.0118 166.655 88.4123 170.753 88.4123C174.775 88.4123 178.719 87.9712 182.582 87.0886L182.587 87.0875L182.591 87.0864C186.47 86.1198 189.99 84.5878 193.149 82.4885C196.329 80.3754 198.855 77.5713 200.726 74.085L200.727 74.0829L200.728 74.0808C202.608 70.4957 203.535 66.1204 203.535 60.9768C203.535 59.2327 203.425 57.5964 203.204 56.0693H202.702C202.926 57.589 203.038 59.2248 203.038 60.9768C203.038 66.0626 202.122 70.3537 200.288 73.8502C198.455 77.2672 195.983 80.0088 192.874 82.0749C189.765 84.141 186.298 85.6509 182.471 86.6044C178.645 87.4786 174.739 87.9156 170.753 87.9156C166.687 87.9156 162.422 87.5183 157.958 86.7236C153.573 85.8495 149.308 84.6973 145.163 83.2669C141.018 81.757 137.231 80.0088 133.803 78.0221L143.848 57.6392L146.239 59.0696C147.834 60.0232 149.946 61.0959 152.577 62.2879C155.208 63.4799 158.117 64.5527 161.306 65.5063C164.574 66.4599 167.843 66.9367 171.111 66.9367C173.662 66.9367 175.416 66.6188 176.373 65.9831C177.409 65.2679 177.927 64.354 177.927 63.2415C177.927 61.5727 177.05 60.3013 175.297 59.4272C173.543 58.4736 171.231 57.5995 168.361 56.8048C167.606 56.5684 166.828 56.3232 166.027 56.0693H164.387ZM137.804 34.3314H137.302C137.109 32.9945 137.014 31.5852 137.014 30.1043C137.014 23.7474 138.508 18.3973 141.528 14.0852C144.529 9.79907 148.466 6.56328 153.329 4.38178C158.259 2.1263 163.55 1 169.198 1C173.383 1 177.411 1.52127 181.28 2.56519C185.207 3.52418 188.857 4.72369 192.231 6.16478C195.665 7.59789 198.664 8.95309 201.227 10.2304L201.681 10.4564L191.16 30.558L190.71 30.2944L190.709 30.2941L190.708 30.2932L188.677 29.1024C187.347 28.3224 185.574 27.4576 183.352 26.5083L183.345 26.5054L183.339 26.5023C181.13 25.48 178.721 24.5742 176.11 23.7854C173.522 23.0038 170.979 22.6147 168.481 22.6147C166.536 22.6147 164.984 22.9256 163.8 23.5161C163.235 23.7976 162.833 24.1635 162.57 24.6068C162.305 25.0517 162.161 25.6056 162.161 26.29C162.161 27.5415 162.706 28.5467 163.859 29.337C165.076 30.1715 166.817 30.948 169.104 31.6556C171.497 32.3713 174.328 33.2457 177.596 34.2785C177.654 34.2961 177.712 34.3138 177.77 34.3314H176.111C173.402 33.48 171.018 32.7465 168.959 32.1307C166.647 31.4155 164.854 30.6208 163.578 29.7467C162.303 28.8726 161.665 27.7204 161.665 26.29C161.665 24.7801 162.303 23.7073 163.578 23.0716C164.854 22.4359 166.488 22.118 168.481 22.118C171.032 22.118 173.622 22.5153 176.253 23.31C178.884 24.1047 181.315 25.0185 183.547 26.0516C185.78 27.0052 187.573 27.8793 188.928 28.6739L190.961 29.8659L201.006 10.6749C200.859 10.6017 200.71 10.5282 200.561 10.4544C198.109 9.24761 195.268 7.97019 192.037 6.6222C188.689 5.19181 185.062 3.99983 181.156 3.04624C177.329 2.01319 173.343 1.49666 169.198 1.49666C163.618 1.49666 158.396 2.60918 153.534 4.83422C148.75 6.97979 144.884 10.1584 141.935 14.3701C138.985 18.5818 137.51 23.8265 137.51 30.1043C137.51 31.5904 137.608 32.9995 137.804 34.3314Z"/></mask><path fill-rule="evenodd" clip-rule="evenodd" d="M26.4756 56.0693V87.3395H50.7865V56.0693H50.2898V86.8428H26.9722V56.0693H26.4756ZM26.4756 34.3314H26.9722V2.21185H50.2898V34.3314H50.7865V1.71519H26.4756V34.3314ZM82.8422 56.0693V87.3395H107.153V56.0693H106.656V86.8428H83.3389V56.0693H82.8422ZM83.3389 34.3314H82.8422V22.9723H58.3289V1.71519H131.547V22.9723H107.153V34.3314H106.656V22.4756H131.05V2.21185H58.8256V22.4756H83.3389V34.3314ZM164.387 56.0693C165.723 56.495 166.998 56.8982 168.213 57.2787L168.221 57.2812L168.229 57.2835C171.078 58.0724 173.351 58.9344 175.059 59.8635L175.067 59.8677L175.075 59.8717C175.897 60.2811 176.481 60.7679 176.861 61.3183C177.237 61.8644 177.431 62.4993 177.431 63.2415C177.431 64.166 177.014 64.9355 176.094 65.5717C175.695 65.8362 175.092 66.0572 174.251 66.2096C173.413 66.3615 172.369 66.44 171.111 66.44C167.892 66.44 164.671 65.9706 161.446 65.0298C158.277 64.0819 155.389 63.0168 152.782 61.8355C150.16 60.6476 148.066 59.5835 146.494 58.6433L144.103 57.2133L144.103 57.213L143.64 56.9364L133.153 78.2191L133.554 78.4519C137.01 80.4547 140.823 82.2148 144.993 83.7336L144.997 83.735L145.001 83.7364C149.168 85.1742 153.455 86.3323 157.861 87.2107L157.866 87.2117L157.871 87.2126C162.361 88.0118 166.655 88.4123 170.753 88.4123C174.775 88.4123 178.719 87.9712 182.582 87.0886L182.587 87.0875L182.591 87.0864C186.47 86.1198 189.99 84.5878 193.149 82.4885C196.329 80.3754 198.855 77.5713 200.726 74.085L200.727 74.0829L200.728 74.0808C202.608 70.4957 203.535 66.1204 203.535 60.9768C203.535 59.2327 203.425 57.5964 203.204 56.0693H202.702C202.926 57.589 203.038 59.2248 203.038 60.9768C203.038 66.0626 202.122 70.3537 200.288 73.8502C198.455 77.2672 195.983 80.0088 192.874 82.0749C189.765 84.141 186.298 85.6509 182.471 86.6044C178.645 87.4786 174.739 87.9156 170.753 87.9156C166.687 87.9156 162.422 87.5183 157.958 86.7236C153.573 85.8495 149.308 84.6973 145.163 83.2669C141.018 81.757 137.231 80.0088 133.803 78.0221L143.848 57.6392L146.239 59.0696C147.834 60.0232 149.946 61.0959 152.577 62.2879C155.208 63.4799 158.117 64.5527 161.306 65.5063C164.574 66.4599 167.843 66.9367 171.111 66.9367C173.662 66.9367 175.416 66.6188 176.373 65.9831C177.409 65.2679 177.927 64.354 177.927 63.2415C177.927 61.5727 177.05 60.3013 175.297 59.4272C173.543 58.4736 171.231 57.5995 168.361 56.8048C167.606 56.5684 166.828 56.3232 166.027 56.0693H164.387ZM137.804 34.3314H137.302C137.109 32.9945 137.014 31.5852 137.014 30.1043C137.014 23.7474 138.508 18.3973 141.528 14.0852C144.529 9.79907 148.466 6.56328 153.329 4.38178C158.259 2.1263 163.55 1 169.198 1C173.383 1 177.411 1.52127 181.28 2.56519C185.207 3.52418 188.857 4.72369 192.231 6.16478C195.665 7.59789 198.664 8.95309 201.227 10.2304L201.681 10.4564L191.16 30.558L190.71 30.2944L190.709 30.2941L190.708 30.2932L188.677 29.1024C187.347 28.3224 185.574 27.4576 183.352 26.5083L183.345 26.5054L183.339 26.5023C181.13 25.48 178.721 24.5742 176.11 23.7854C173.522 23.0038 170.979 22.6147 168.481 22.6147C166.536 22.6147 164.984 22.9256 163.8 23.5161C163.235 23.7976 162.833 24.1635 162.57 24.6068C162.305 25.0517 162.161 25.6056 162.161 26.29C162.161 27.5415 162.706 28.5467 163.859 29.337C165.076 30.1715 166.817 30.948 169.104 31.6556C171.497 32.3713 174.328 33.2457 177.596 34.2785C177.654 34.2961 177.712 34.3138 177.77 34.3314H176.111C173.402 33.48 171.018 32.7465 168.959 32.1307C166.647 31.4155 164.854 30.6208 163.578 29.7467C162.303 28.8726 161.665 27.7204 161.665 26.29C161.665 24.7801 162.303 23.7073 163.578 23.0716C164.854 22.4359 166.488 22.118 168.481 22.118C171.032 22.118 173.622 22.5153 176.253 23.31C178.884 24.1047 181.315 25.0185 183.547 26.0516C185.78 27.0052 187.573 27.8793 188.928 28.6739L190.961 29.8659L201.006 10.6749C200.859 10.6017 200.71 10.5282 200.561 10.4544C198.109 9.24761 195.268 7.97019 192.037 6.6222C188.689 5.19181 185.062 3.99983 181.156 3.04624C177.329 2.01319 173.343 1.49666 169.198 1.49666C163.618 1.49666 158.396 2.60918 153.534 4.83422C148.75 6.97979 144.884 10.1584 141.935 14.3701C138.985 18.5818 137.51 23.8265 137.51 30.1043C137.51 31.5904 137.608 32.9995 137.804 34.3314Z" fill="#3C3CE9"/><path d="M26.4756 87.3395H25.6406V88.1745H26.4756V87.3395ZM26.4756 56.0693V55.2343H25.6406V56.0693H26.4756ZM50.7865 87.3395V88.1745H51.6215V87.3395H50.7865ZM50.7865 56.0693H51.6215V55.2343H50.7865V56.0693ZM50.2898 56.0693V55.2343H49.4548V56.0693H50.2898ZM50.2898 86.8428V87.6779H51.1248V86.8428H50.2898ZM26.9722 86.8428H26.1372V87.6779H26.9722V86.8428ZM26.9722 56.0693H27.8073V55.2343H26.9722V56.0693ZM26.4756 34.3314H25.6406V35.1664H26.4756V34.3314ZM26.9722 34.3314V35.1664H27.8073V34.3314H26.9722ZM26.9722 2.21185V1.37683H26.1372V2.21185H26.9722ZM50.2898 2.21185H51.1248V1.37683H50.2898V2.21185ZM50.2898 34.3314H49.4548V35.1664H50.2898V34.3314ZM50.7865 34.3314V35.1664H51.6215V34.3314H50.7865ZM50.7865 1.71519H51.6215V0.880164H50.7865V1.71519ZM26.4756 1.71519V0.880164H25.6406V1.71519H26.4756ZM82.8422 87.3395H82.0072V88.1745H82.8422V87.3395ZM82.8422 56.0693V55.2343H82.0072V56.0693H82.8422ZM107.153 87.3395V88.1745H107.988V87.3395H107.153ZM107.153 56.0693H107.988V55.2343H107.153V56.0693ZM106.656 56.0693V55.2343H105.821V56.0693H106.656ZM106.656 86.8428V87.6779H107.491V86.8428H106.656ZM83.3389 86.8428H82.5039V87.6779H83.3389V86.8428ZM83.3389 56.0693H84.1739V55.2343H83.3389V56.0693ZM82.8422 34.3314H82.0072V35.1664H82.8422V34.3314ZM83.3389 34.3314V35.1664H84.1739V34.3314H83.3389ZM82.8422 22.9723H83.6773V22.1372H82.8422V22.9723ZM58.3289 22.9723H57.4939V23.8073H58.3289V22.9723ZM58.3289 1.71519V0.880164H57.4939V1.71519H58.3289ZM131.547 1.71519H132.382V0.880164H131.547V1.71519ZM131.547 22.9723V23.8073H132.382V22.9723H131.547ZM107.153 22.9723V22.1372H106.318V22.9723H107.153ZM107.153 34.3314V35.1664H107.988V34.3314H107.153ZM106.656 34.3314H105.821V35.1664H106.656V34.3314ZM106.656 22.4756V21.6406H105.821V22.4756H106.656ZM131.05 22.4756V23.3106H131.885V22.4756H131.05ZM131.05 2.21185H131.885V1.37683H131.05V2.21185ZM58.8256 2.21185V1.37683H57.9905V2.21185H58.8256ZM58.8256 22.4756H57.9905V23.3106H58.8256V22.4756ZM83.3389 22.4756H84.1739V21.6406H83.3389V22.4756ZM168.213 57.2787L167.963 58.0756L167.963 58.0757L168.213 57.2787ZM164.387 56.0693V55.2343L164.134 56.8649L164.387 56.0693ZM168.221 57.2812L167.971 58.0782L167.984 58.0822L167.997 58.0858L168.221 57.2812ZM168.229 57.2835L168.005 58.088L168.006 58.0882L168.229 57.2835ZM175.059 59.8635L174.66 60.5971L174.661 60.5973L175.059 59.8635ZM175.067 59.8677L174.669 60.6015L174.681 60.6083L174.694 60.6147L175.067 59.8677ZM175.075 59.8717L174.702 60.6187L174.703 60.619L175.075 59.8717ZM176.861 61.3183L177.548 60.8442V60.8442L176.861 61.3183ZM176.094 65.5717L176.555 66.268L176.562 66.2633L176.569 66.2585L176.094 65.5717ZM174.251 66.2096L174.4 67.0312L174.251 66.2096ZM161.446 65.0298L161.207 65.8299L161.212 65.8315L161.446 65.0298ZM152.782 61.8355L152.437 62.5961L152.782 61.8355ZM146.494 58.6433L146.066 59.36H146.066L146.494 58.6433ZM144.103 57.2133L144.532 56.4967L144.531 56.4964L144.103 57.2133ZM144.103 57.213L143.674 57.9296L143.675 57.9299L144.103 57.213ZM143.64 56.9364L144.069 56.2198L143.292 55.7549L142.891 56.5673L143.64 56.9364ZM133.153 78.2191L132.404 77.85L132.059 78.5501L132.734 78.9415L133.153 78.2191ZM133.554 78.4519L133.973 77.7294H133.973L133.554 78.4519ZM144.993 83.7336L145.28 82.9492L145.279 82.949L144.993 83.7336ZM144.997 83.735L144.711 84.5193L144.717 84.5219L144.724 84.5243L144.997 83.735ZM145.001 83.7364L144.728 84.5257L144.729 84.5257L145.001 83.7364ZM157.861 87.2107L157.698 88.0296L157.698 88.0297L157.861 87.2107ZM157.866 87.2117L157.703 88.0307L157.711 88.0323L157.719 88.0338L157.866 87.2117ZM157.871 87.2126L157.724 88.0347L157.725 88.0347L157.871 87.2126ZM182.582 87.0886L182.768 87.9027L182.768 87.9026L182.582 87.0886ZM182.587 87.0875L182.773 87.9015L182.781 87.8998L182.788 87.8979L182.587 87.0875ZM182.591 87.0864L182.793 87.8968L182.793 87.8966L182.591 87.0864ZM193.149 82.4885L192.687 81.7931V81.7931L193.149 82.4885ZM200.726 74.085L199.992 73.6871L199.99 73.6902L200.726 74.085ZM200.727 74.0829L201.461 74.481L201.467 74.4703L200.727 74.0829ZM200.728 74.0808L199.989 73.6931L199.988 73.6935L200.728 74.0808ZM203.204 56.0693L204.03 55.9495L203.926 55.2343H203.204V56.0693ZM202.702 56.0693V55.2343H201.734L201.876 56.1913L202.702 56.0693ZM200.288 73.8502L201.024 74.245L201.028 74.238L200.288 73.8502ZM182.471 86.6044L182.657 87.4185L182.665 87.4167L182.673 87.4147L182.471 86.6044ZM157.958 86.7236L157.795 87.5425L157.803 87.5442L157.812 87.5457L157.958 86.7236ZM145.163 83.2669L144.877 84.0515L144.884 84.0539L144.891 84.0562L145.163 83.2669ZM133.803 78.0221L133.054 77.653L132.709 78.3532L133.385 78.7446L133.803 78.0221ZM143.848 57.6392L144.276 56.9226L143.499 56.4577L143.099 57.2701L143.848 57.6392ZM146.239 59.0696L146.668 58.3529L146.239 59.0696ZM152.577 62.2879L152.232 63.0485L152.577 62.2879ZM161.306 65.5063L161.067 66.3063L161.072 66.3079L161.306 65.5063ZM176.373 65.9831L176.835 66.6786L176.841 66.6745L176.847 66.6703L176.373 65.9831ZM175.297 59.4272L174.898 60.1608L174.911 60.1679L174.924 60.1745L175.297 59.4272ZM168.361 56.8048L168.111 57.6016L168.125 57.6058L168.138 57.6095L168.361 56.8048ZM166.027 56.0693L166.279 55.2733L166.156 55.2343H166.027V56.0693ZM137.302 34.3314L136.476 34.4506L136.579 35.1664H137.302V34.3314ZM137.804 34.3314V35.1664H138.771L138.63 34.2099L137.804 34.3314ZM141.528 14.0852L140.844 13.6062V13.6062L141.528 14.0852ZM153.329 4.38178L153.67 5.14367L153.676 5.14111L153.329 4.38178ZM181.28 2.56519L181.062 3.37139L181.072 3.374L181.081 3.37638L181.28 2.56519ZM192.231 6.16478L191.903 6.9327L191.909 6.9354L192.231 6.16478ZM201.227 10.2304L201.6 9.4831V9.48309L201.227 10.2304ZM201.681 10.4564L202.42 10.8436L202.815 10.089L202.053 9.70908L201.681 10.4564ZM191.16 30.558L190.737 31.2783L191.493 31.7215L191.899 30.9452L191.16 30.558ZM190.71 30.2944L190.284 31.0124L190.288 31.0147L190.71 30.2944ZM190.709 30.2941L191.136 29.5761L191.131 29.5731L190.709 30.2941ZM190.708 30.2932L190.286 31.0135L190.287 31.0142L190.708 30.2932ZM188.677 29.1024L188.255 29.8227V29.8227L188.677 29.1024ZM183.352 26.5083L183.68 25.7404L183.68 25.7403L183.352 26.5083ZM183.345 26.5054L182.995 27.2632L183.006 27.2685L183.018 27.2733L183.345 26.5054ZM183.339 26.5023L182.988 27.2601L182.988 27.2601L183.339 26.5023ZM176.11 23.7854L176.351 22.9861V22.9861L176.11 23.7854ZM163.8 23.5161L164.172 24.2635L164.172 24.2635L163.8 23.5161ZM162.57 24.6068L161.852 24.1801V24.1801L162.57 24.6068ZM163.859 29.337L163.387 30.0258V30.0258L163.859 29.337ZM169.104 31.6556L168.857 32.4533L168.864 32.4556L169.104 31.6556ZM177.596 34.2785L177.344 35.0748L177.354 35.0779L177.596 34.2785ZM177.77 34.3314V35.1664L178.013 33.5325L177.77 34.3314ZM176.111 34.3314L175.861 35.128L175.983 35.1664H176.111V34.3314ZM168.959 32.1307L168.712 32.9285L168.72 32.9307L168.959 32.1307ZM163.578 29.7467L163.106 30.4355L163.578 29.7467ZM163.578 23.0716L163.206 22.3243L163.206 22.3243L163.578 23.0716ZM176.253 23.31L176.495 22.5106L176.253 23.31ZM183.547 26.0516L183.197 26.8094L183.208 26.8146L183.219 26.8195L183.547 26.0516ZM188.928 28.6739L188.506 29.3943L188.928 28.6739ZM190.961 29.8659L190.539 30.5862L191.295 31.0295L191.701 30.2531L190.961 29.8659ZM201.006 10.6749L201.745 11.0622L202.14 10.3076L201.378 9.92761L201.006 10.6749ZM200.561 10.4544L200.929 9.70528V9.70527L200.561 10.4544ZM192.037 6.6222L191.709 7.39011L191.716 7.39282L192.037 6.6222ZM181.156 3.04624L180.938 3.8524L180.948 3.85504L180.958 3.85744L181.156 3.04624ZM153.534 4.83422L153.875 5.59612L153.881 5.59353L153.534 4.83422ZM141.935 14.3701L141.251 13.8911V13.8911L141.935 14.3701ZM27.3106 87.3395V56.0693H25.6406V87.3395H27.3106ZM50.7865 86.5045H26.4756V88.1745H50.7865V86.5045ZM49.9514 56.0693V87.3395H51.6215V56.0693H49.9514ZM50.7865 55.2343H50.2898V56.9044H50.7865V55.2343ZM49.4548 56.0693V86.8428H51.1248V56.0693H49.4548ZM50.2898 86.0078H26.9722V87.6779H50.2898V86.0078ZM27.8073 86.8428V56.0693H26.1372V86.8428H27.8073ZM26.9722 55.2343H26.4756V56.9044H26.9722V55.2343ZM26.4756 35.1664H26.9722V33.4964H26.4756V35.1664ZM27.8073 34.3314V2.21185H26.1372V34.3314H27.8073ZM26.9722 3.04688H50.2898V1.37683H26.9722V3.04688ZM49.4548 2.21185V34.3314H51.1248V2.21185H49.4548ZM50.2898 35.1664H50.7865V33.4964H50.2898V35.1664ZM49.9514 1.71519V34.3314H51.6215V1.71519H49.9514ZM26.4756 2.55021H50.7865V0.880164H26.4756V2.55021ZM27.3106 34.3314V1.71519H25.6406V34.3314H27.3106ZM83.6773 87.3395V56.0693H82.0072V87.3395H83.6773ZM107.153 86.5045H82.8422V88.1745H107.153V86.5045ZM106.318 56.0693V87.3395H107.988V56.0693H106.318ZM107.153 55.2343H106.656V56.9044H107.153V55.2343ZM107.491 86.8428V56.0693H105.821V86.8428H107.491ZM83.3389 87.6779H106.656V86.0078H83.3389V87.6779ZM82.5039 56.0693V86.8428H84.1739V56.0693H82.5039ZM83.3389 55.2343H82.8422V56.9044H83.3389V55.2343ZM82.8422 35.1664H83.3389V33.4964H82.8422V35.1664ZM83.6773 34.3314V22.9723H82.0072V34.3314H83.6773ZM82.8422 22.1372H58.3289V23.8073H82.8422V22.1372ZM59.1639 22.9723V1.71519H57.4939V22.9723H59.1639ZM58.3289 2.55021H131.547V0.880164H58.3289V2.55021ZM130.712 1.71519V22.9723H132.382V1.71519H130.712ZM131.547 22.1372H107.153V23.8073H131.547V22.1372ZM106.318 22.9723V34.3314H107.988V22.9723H106.318ZM106.656 35.1664H107.153V33.4964H106.656V35.1664ZM107.491 34.3314V22.4756H105.821V34.3314H107.491ZM106.656 23.3106H131.05V21.6406H106.656V23.3106ZM131.885 22.4756V2.21185H130.215V22.4756H131.885ZM131.05 1.37683H58.8256V3.04688H131.05V1.37683ZM57.9905 2.21185V22.4756H59.6606V2.21185H57.9905ZM58.8256 23.3106H83.3389V21.6406H58.8256V23.3106ZM82.5039 22.4756V34.3314H84.1739V22.4756H82.5039ZM168.462 56.4819C167.249 56.1018 165.975 55.6991 164.641 55.2738L164.134 56.8649C165.47 57.291 166.747 57.6945 167.963 58.0756L168.462 56.4819ZM168.47 56.4843L168.462 56.4818L167.963 58.0757L167.971 58.0782L168.47 56.4843ZM168.452 56.4789L168.444 56.4766L167.997 58.0858L168.005 58.088L168.452 56.4789ZM175.458 59.1299C173.674 58.1596 171.335 57.2772 168.451 56.4787L168.006 58.0882C170.821 58.8677 173.028 59.7093 174.66 60.5971L175.458 59.1299ZM175.466 59.1339L175.458 59.1297L174.661 60.5973L174.669 60.6015L175.466 59.1339ZM175.448 59.1247L175.44 59.1207L174.694 60.6147L174.702 60.6187L175.448 59.1247ZM177.548 60.8442C177.07 60.1504 176.362 59.5802 175.447 59.1243L174.703 60.619C175.431 60.982 175.893 61.3854 176.173 61.7924L177.548 60.8442ZM178.266 63.2415C178.266 62.3442 178.029 61.541 177.548 60.8442L176.173 61.7924C176.446 62.1878 176.596 62.6544 176.596 63.2415H178.266ZM176.569 66.2585C177.681 65.4897 178.266 64.4788 178.266 63.2415H176.596C176.596 63.8533 176.348 64.3814 175.62 64.8849L176.569 66.2585ZM174.4 67.0312C175.298 66.8686 176.024 66.6198 176.555 66.268L175.634 64.8754C175.366 65.0526 174.887 65.2458 174.102 65.3879L174.4 67.0312ZM171.111 67.275C172.399 67.275 173.497 67.1949 174.4 67.0312L174.102 65.3879C173.329 65.5281 172.338 65.605 171.111 65.605V67.275ZM161.212 65.8315C164.51 66.7934 167.81 67.275 171.111 67.275V65.605C167.975 65.605 164.832 65.1477 161.68 64.2282L161.212 65.8315ZM152.437 62.5961C155.083 63.795 158.007 64.8727 161.207 65.8299L161.686 64.2298C158.547 63.291 155.695 62.2386 153.127 61.075L152.437 62.5961ZM146.066 59.36C147.675 60.3227 149.801 61.4014 152.437 62.5961L153.127 61.075C150.52 59.8937 148.457 58.8444 146.923 57.9267L146.066 59.36ZM143.675 57.9299L146.066 59.36L146.923 57.9267L144.532 56.4967L143.675 57.9299ZM143.675 57.9299L143.675 57.9302L144.531 56.4964L144.531 56.4961L143.675 57.9299ZM144.531 56.4963L144.069 56.2198L143.212 57.6531L143.674 57.9296L144.531 56.4963ZM142.891 56.5673L132.404 77.85L133.902 78.5882L144.389 57.3055L142.891 56.5673ZM132.734 78.9415L133.136 79.1743L133.973 77.7294L133.571 77.4966L132.734 78.9415ZM133.136 79.1743C136.638 81.2043 140.497 82.9845 144.707 84.5182L145.279 82.949C141.15 81.4451 137.382 79.705 133.973 77.7294L133.136 79.1743ZM144.707 84.5179L144.711 84.5193L145.284 82.9507L145.28 82.9492L144.707 84.5179ZM144.724 84.5243L144.728 84.5257L145.274 82.9471L145.27 82.9457L144.724 84.5243ZM144.729 84.5257C148.932 85.9761 153.255 87.144 157.698 88.0296L158.024 86.3918C153.654 85.5206 149.404 84.3723 145.273 82.947L144.729 84.5257ZM157.698 88.0297L157.703 88.0307L158.029 86.3928L158.024 86.3918L157.698 88.0297ZM157.719 88.0338L157.724 88.0347L158.017 86.3905L158.012 86.3896L157.719 88.0338ZM157.725 88.0347C162.257 88.8415 166.6 89.2473 170.753 89.2473V87.5773C166.709 87.5773 162.464 87.1821 158.017 86.3905L157.725 88.0347ZM170.753 89.2473C174.837 89.2473 178.843 88.7994 182.768 87.9027L182.396 86.2746C178.594 87.143 174.714 87.5773 170.753 87.5773V89.2473ZM182.768 87.9026L182.773 87.9015L182.4 86.2736L182.395 86.2747L182.768 87.9026ZM182.788 87.8979L182.793 87.8968L182.39 86.276L182.385 86.2771L182.788 87.8979ZM182.793 87.8966C186.759 86.9083 190.369 85.3391 193.611 83.184L192.687 81.7931C189.612 83.8366 186.18 85.3314 182.389 86.2761L182.793 87.8966ZM193.611 83.184C196.91 80.9917 199.529 78.0824 201.462 74.4798L199.99 73.6902C198.182 77.0601 195.748 79.7591 192.687 81.7931L193.611 83.184ZM201.46 74.483L201.461 74.4809L199.993 73.685L199.992 73.6871L201.46 74.483ZM201.467 74.4703L201.468 74.4682L199.988 73.6935L199.987 73.6956L201.467 74.4703ZM201.468 74.4686C203.426 70.7343 204.37 66.2177 204.37 60.9768H202.7C202.7 66.0231 201.79 70.257 199.989 73.6931L201.468 74.4686ZM204.37 60.9768C204.37 59.198 204.258 57.5212 204.03 55.9495L202.377 56.1892C202.592 57.6715 202.7 59.2674 202.7 60.9768H204.37ZM203.204 55.2343H202.702V56.9044H203.204V55.2343ZM201.876 56.1913C202.093 57.6654 202.203 59.2601 202.203 60.9768H203.874C203.874 59.1895 203.759 57.5125 203.528 55.9473L201.876 56.1913ZM202.203 60.9768C202.203 65.9653 201.304 70.1151 199.549 73.4624L201.028 74.238C202.939 70.5924 203.874 66.1599 203.874 60.9768H202.203ZM199.552 73.4554C197.781 76.7561 195.402 79.3925 192.412 81.3794L193.337 82.7704C196.565 80.6251 199.128 77.7784 201.024 74.245L199.552 73.4554ZM192.412 81.3794C189.387 83.3898 186.008 84.8624 182.269 85.7942L182.673 87.4147C186.587 86.4393 190.144 84.8923 193.337 82.7704L192.412 81.3794ZM182.285 85.7904C178.521 86.6504 174.677 87.0806 170.753 87.0806V88.7507C174.8 88.7507 178.769 88.3068 182.657 87.4185L182.285 85.7904ZM170.753 87.0806C166.741 87.0806 162.526 86.6886 158.104 85.9015L157.812 87.5457C162.319 88.348 166.633 88.7507 170.753 88.7507V87.0806ZM158.121 85.9047C153.773 85.0378 149.544 83.8954 145.436 82.4775L144.891 84.0562C149.072 85.4992 153.374 86.6612 157.795 87.5425L158.121 85.9047ZM145.449 82.4823C141.344 80.9873 137.603 79.2592 134.222 77.2997L133.385 78.7446C136.859 80.7584 140.691 82.5267 144.877 84.0515L145.449 82.4823ZM134.552 78.3913L144.597 58.0083L143.099 57.2701L133.054 77.653L134.552 78.3913ZM146.668 58.3529L144.276 56.9226L143.419 58.3558L145.811 59.7862L146.668 58.3529ZM152.922 61.5273C150.306 60.3421 148.225 59.284 146.668 58.3529L145.811 59.7862C147.443 60.7623 149.587 61.8498 152.232 63.0485L152.922 61.5273ZM161.545 64.7063C158.387 63.7619 155.513 62.7017 152.922 61.5273L152.232 63.0485C154.902 64.2581 157.847 65.3436 161.067 66.3063L161.545 64.7063ZM171.111 66.1017C167.925 66.1017 164.736 65.637 161.54 64.7047L161.072 66.3079C164.413 67.2827 167.761 67.7717 171.111 67.7717V66.1017ZM175.911 65.2876C175.565 65.5175 175.011 65.728 174.191 65.8766C173.379 66.0238 172.356 66.1017 171.111 66.1017V67.7717C172.417 67.7717 173.547 67.6907 174.489 67.5199C175.422 67.3507 176.224 67.0844 176.835 66.6786L175.911 65.2876ZM177.092 63.2415C177.092 64.0401 176.744 64.7127 175.898 65.2958L176.847 66.6703C178.075 65.8232 178.762 64.668 178.762 63.2415H177.092ZM174.924 60.1745C175.708 60.5652 176.243 61.0181 176.582 61.5104C176.917 61.9954 177.092 62.5622 177.092 63.2415H178.762C178.762 62.2521 178.499 61.3487 177.957 60.5623C177.42 59.7831 176.639 59.1633 175.669 58.6798L174.924 60.1745ZM168.138 57.6095C170.974 58.3947 173.22 59.2484 174.898 60.1608L175.695 58.6936C173.866 57.6988 171.488 56.8042 168.584 56.0001L168.138 57.6095ZM165.775 56.8654C166.577 57.1195 167.356 57.3649 168.111 57.6016L168.611 56.008C167.857 55.7718 167.08 55.5269 166.279 55.2733L165.775 56.8654ZM166.027 55.2343H164.387V56.9044H166.027V55.2343ZM137.302 35.1664H137.804V33.4964H137.302V35.1664ZM138.129 34.2123C137.942 32.9186 137.849 31.5493 137.849 30.1043H136.178C136.178 31.6211 136.277 33.0705 136.476 34.4506L138.129 34.2123ZM137.849 30.1043C137.849 23.8804 139.31 18.7074 142.212 14.5642L140.844 13.6062C137.706 18.0872 136.178 23.6145 136.178 30.1043H137.849ZM142.212 14.5642C145.125 10.404 148.943 7.26473 153.67 5.14365L152.987 3.61992C147.99 5.86184 143.934 9.19412 140.844 13.6062L142.212 14.5642ZM153.676 5.14111C158.492 2.93769 163.665 1.83503 169.198 1.83503V0.164975C163.436 0.164975 158.025 1.31492 152.981 3.62245L153.676 5.14111ZM169.198 1.83503C173.313 1.83503 177.267 2.34746 181.062 3.37139L181.497 1.759C177.554 0.695077 173.453 0.164975 169.198 0.164975V1.83503ZM181.081 3.37638C184.969 4.32563 188.576 5.51129 191.903 6.93267L192.559 5.39688C189.139 3.93608 185.445 2.72274 181.478 1.75401L181.081 3.37638ZM191.909 6.9354C195.331 8.36334 198.313 9.71081 200.855 10.9778L201.6 9.48309C199.016 8.19537 195.999 6.83244 192.552 5.39416L191.909 6.9354ZM200.855 10.9778L201.308 11.2038L202.053 9.70908L201.6 9.4831L200.855 10.9778ZM200.941 10.0692L190.42 30.1708L191.899 30.9452L202.42 10.8436L200.941 10.0692ZM191.582 29.8377L191.132 29.574L190.288 31.0147L190.737 31.2783L191.582 29.8377ZM190.283 31.0121L190.284 31.0124L191.136 29.5764L191.136 29.5761L190.283 31.0121ZM190.287 31.0142L190.288 31.0151L191.131 29.5731L191.129 29.5722L190.287 31.0142ZM188.255 29.8227L190.286 31.0135L191.13 29.5729L189.1 28.382L188.255 29.8227ZM183.024 27.2762C185.229 28.2182 186.967 29.0674 188.255 29.8227L189.1 28.3821C187.727 27.5774 185.919 26.6969 183.68 25.7404L183.024 27.2762ZM183.018 27.2733L183.024 27.2762L183.68 25.7403L183.673 25.7374L183.018 27.2733ZM182.988 27.2601L182.995 27.2632L183.696 25.7476L183.689 25.7445L182.988 27.2601ZM175.868 24.5848C178.446 25.3635 180.819 26.256 182.988 27.2601L183.69 25.7445C181.442 24.7041 178.995 23.7848 176.351 22.9861L175.868 24.5848ZM168.481 23.4497C170.892 23.4497 173.353 23.825 175.868 24.5848L176.351 22.9861C173.691 22.1826 171.067 21.7796 168.481 21.7796V23.4497ZM164.172 24.2635C165.205 23.7488 166.617 23.4497 168.481 23.4497V21.7796C166.455 21.7796 164.764 22.1023 163.427 22.7688L164.172 24.2635ZM163.288 25.0335C163.458 24.7467 163.73 24.4838 164.172 24.2635L163.427 22.7688C162.74 23.1114 162.209 23.5803 161.852 24.1801L163.288 25.0335ZM162.996 26.29C162.996 25.7244 163.115 25.3248 163.288 25.0335L161.852 24.1801C161.496 24.7787 161.326 25.4868 161.326 26.29H162.996ZM164.331 28.6482C163.383 27.9989 162.996 27.2411 162.996 26.29H161.326C161.326 27.8419 162.028 29.0945 163.387 30.0258L164.331 28.6482ZM169.35 30.8578C167.104 30.1627 165.452 29.4164 164.331 28.6482L163.387 30.0258C164.701 30.9266 166.53 31.7332 168.857 32.4533L169.35 30.8578ZM177.847 33.4823C174.577 32.4486 171.742 31.5729 169.343 30.8555L168.864 32.4556C171.252 33.1698 174.079 34.0428 177.344 35.0747L177.847 33.4823ZM178.013 33.5325C177.954 33.5147 177.896 33.4969 177.837 33.4792L177.354 35.0779C177.412 35.0953 177.47 35.1128 177.527 35.1304L178.013 33.5325ZM176.111 35.1664H177.77V33.4964H176.111V35.1664ZM168.72 32.9307C170.774 33.5451 173.154 34.2775 175.861 35.128L176.362 33.5348C173.65 32.6826 171.262 31.9478 169.198 31.3307L168.72 32.9307ZM163.106 30.4355C164.478 31.376 166.36 32.2008 168.712 32.9284L169.206 31.333C166.934 30.6302 165.229 29.8657 164.05 29.0579L163.106 30.4355ZM160.83 26.29C160.83 28.0211 161.625 29.4206 163.106 30.4355L164.05 29.0579C162.98 28.3246 162.5 27.4196 162.5 26.29H160.83ZM163.206 22.3243C162.445 22.7032 161.837 23.2333 161.425 23.9263C161.015 24.6164 160.83 25.4164 160.83 26.29H162.5C162.5 25.6537 162.633 25.1623 162.861 24.7797C163.087 24.3999 163.435 24.0757 163.951 23.8189L163.206 22.3243ZM168.481 21.283C166.407 21.283 164.633 21.6126 163.206 22.3243L163.95 23.8189C165.074 23.2592 166.569 22.953 168.481 22.953V21.283ZM176.495 22.5106C173.792 21.6942 171.12 21.283 168.481 21.283V22.953C170.944 22.953 173.453 23.3365 176.012 24.1093L176.495 22.5106ZM183.898 25.2938C181.627 24.2426 179.158 23.3153 176.495 22.5106L176.012 24.1093C178.609 24.894 181.004 25.7945 183.197 26.8094L183.898 25.2938ZM189.351 27.9536C187.953 27.1343 186.125 26.2445 183.875 25.2837L183.219 26.8195C185.434 27.7658 187.193 28.6243 188.506 29.3943L189.351 27.9536ZM191.384 29.1456L189.351 27.9536L188.506 29.3943L190.539 30.5862L191.384 29.1456ZM191.701 30.2531L201.745 11.0622L200.266 10.2877L190.221 29.4787L191.701 30.2531ZM201.378 9.92761C201.23 9.85374 201.08 9.77962 200.929 9.70528L200.192 11.2036C200.34 11.2768 200.488 11.3497 200.633 11.4223L201.378 9.92761ZM200.929 9.70527C198.459 8.48903 195.601 7.20448 192.359 5.85157L191.716 7.39282C194.934 8.7359 197.759 10.0062 200.192 11.2036L200.929 9.70527ZM192.365 5.85431C188.971 4.4042 185.3 3.19837 181.354 2.23504L180.958 3.85744C184.824 4.80129 188.407 5.97942 191.709 7.39008L192.365 5.85431ZM181.374 2.24008C177.473 1.187 173.414 0.661636 169.198 0.661636V2.33169C173.273 2.33169 177.186 2.83937 180.938 3.8524L181.374 2.24008ZM169.198 0.661636C163.503 0.661636 158.163 1.7978 153.186 4.07491L153.881 5.59353C158.63 3.42056 163.732 2.33169 169.198 2.33169V0.661636ZM153.192 4.07234C148.274 6.27833 144.288 9.55346 141.251 13.8911L142.619 14.8491C145.48 10.7634 149.227 7.68126 153.875 5.5961L153.192 4.07234ZM141.251 13.8911C138.183 18.2717 136.675 23.6936 136.675 30.1043H138.345C138.345 23.9595 139.787 18.8919 142.619 14.8491L141.251 13.8911ZM136.675 30.1043C136.675 31.627 136.776 33.0769 136.978 34.4529L138.63 34.2099C138.441 32.9221 138.345 31.5539 138.345 30.1043H136.675Z" fill="#3C3CE9" mask="url(#path-1-outside-1_458_786)"/><path d="M1.39258 50.6211V39.6899H8.64626V41.5953H3.70372V43.7304H5.48112C6.34579 43.7304 7.09127 43.8709 7.71754 44.152C8.34736 44.4296 8.83308 44.8228 9.17468 45.3316C9.51628 45.8405 9.68708 46.44 9.68708 47.1304C9.68708 47.8171 9.51628 48.4238 9.17468 48.9505C8.83308 49.4735 8.34736 49.8827 7.71754 50.1781C7.09127 50.4734 6.34579 50.6211 5.48112 50.6211H1.39258ZM3.70372 48.7636H5.48112C5.89388 48.7636 6.2426 48.6889 6.52727 48.5395C6.81194 48.3865 7.02722 48.1854 7.17311 47.9363C7.32256 47.6837 7.39729 47.4079 7.39729 47.109C7.39729 46.6749 7.23182 46.3084 6.9009 46.0095C6.57353 45.707 6.10027 45.5558 5.48112 45.5558H3.70372V48.7636ZM12.9953 50.6211V48.7636L13.3049 48.7369C13.7034 48.7049 14.0255 48.5537 14.271 48.2833C14.5165 48.0093 14.6998 47.5734 14.8208 46.9756C14.9453 46.3742 15.0254 45.5665 15.0609 44.5523L15.2424 39.6899H22.6616V50.6211H20.4145V41.542H17.3881L17.2173 45.3476C17.1604 46.5717 17.0145 47.5716 16.7796 48.3473C16.5483 49.123 16.1783 49.6959 15.6694 50.066C15.1641 50.4361 14.472 50.6211 13.5931 50.6211H12.9953ZM26.9719 39.6899H29.2778V46.5646H29.3685L34.0922 39.6899H36.1151V50.6211H33.804V43.741H33.7239L28.9735 50.6211H26.9719V39.6899ZM50.9604 48.7743L50.827 53.2045H48.6279V50.6211H47.8593V48.7743H50.9604ZM40.4295 50.6211V39.6899H42.6499V48.7636H47.1975V39.6899H49.4446V50.6211H40.4295ZM60.6513 39.6899H63.5016L66.5119 47.0343H66.64L69.6504 39.6899H72.5006V50.6211H70.2589V43.5062H70.1681L67.3392 50.5677H65.8127L62.9838 43.4795H62.8931V50.6211H60.6513V39.6899ZM76.8096 50.6211V39.6899H84.1754V41.5953H79.1208V44.2001H83.7965V46.1056H79.1208V48.7156H84.1968V50.6211H76.8096ZM88.4177 50.6211V39.6899H92.7305C93.5595 39.6899 94.2659 39.8482 94.8494 40.1649C95.433 40.478 95.8778 40.9139 96.1838 41.4726C96.4934 42.0277 96.6482 42.6682 96.6482 43.3941C96.6482 44.12 96.4916 44.7605 96.1785 45.3156C95.8654 45.8707 95.4117 46.303 94.8174 46.6126C94.2267 46.9222 93.5115 47.077 92.6717 47.077H89.9229V45.2249H92.2981C92.7429 45.2249 93.1094 45.1484 93.3976 44.9953C93.6894 44.8388 93.9065 44.6235 94.0488 44.3495C94.1947 44.072 94.2677 43.7535 94.2677 43.3941C94.2677 43.0311 94.1947 42.7144 94.0488 42.444C93.9065 42.17 93.6894 41.9583 93.3976 41.8088C93.1059 41.6558 92.7358 41.5793 92.2874 41.5793H90.7289V50.6211H88.4177ZM100.997 39.6899H103.244V43.2126C103.244 43.6325 103.317 43.9705 103.463 44.2267C103.609 44.4794 103.835 44.6626 104.141 44.7765C104.451 44.8868 104.847 44.942 105.331 44.942C105.502 44.942 105.703 44.9366 105.934 44.926C106.166 44.9117 106.404 44.8922 106.65 44.8672C106.899 44.8423 107.134 44.8121 107.354 44.7765C107.575 44.7409 107.758 44.7 107.904 44.6537V46.4792C107.755 46.529 107.568 46.5735 107.344 46.6126C107.123 46.6482 106.89 46.6802 106.644 46.7087C106.399 46.7336 106.16 46.7532 105.929 46.7674C105.698 46.7816 105.499 46.7888 105.331 46.7888C104.452 46.7888 103.687 46.6642 103.036 46.4151C102.385 46.1625 101.882 45.7728 101.526 45.2462C101.173 44.7196 100.997 44.0417 100.997 43.2126V39.6899ZM107.504 39.6899H109.761V50.6211H107.504V39.6899ZM114.452 50.6211V39.6899H121.818V41.5953H116.763V44.2001H121.439V46.1056H116.763V48.7156H121.839V50.6211H114.452ZM126.06 50.6211V39.6899H128.371V44.2001H133.063V39.6899H135.369V50.6211H133.063V46.1056H128.371V50.6211H126.06ZM139.087 53.2578V48.7796H139.829C140.081 48.5982 140.313 48.342 140.523 48.011C140.732 47.6766 140.912 47.2158 141.062 46.6286C141.211 46.0379 141.318 45.2658 141.382 44.3121L141.691 39.6899H148.924V48.7796H150.119V53.2472H147.899V50.6211H141.307V53.2578H139.087ZM142.497 48.7796H146.703V41.5953H143.773L143.602 44.3121C143.556 45.0345 143.48 45.675 143.373 46.2337C143.27 46.7923 143.143 47.2816 142.994 47.7015C142.848 48.1178 142.682 48.4772 142.497 48.7796ZM155.814 50.6211H153.337L157.111 39.6899H160.089L163.857 50.6211H161.381L158.642 42.1878H158.557L155.814 50.6211ZM155.659 46.3244H161.509V48.1285H155.659V46.3244ZM167.578 39.6899H169.884V46.5646H169.974L174.698 39.6899H176.721V50.6211H174.41V43.741H174.33L169.579 50.6211H167.578V39.6899ZM173.214 36.8289H174.799C174.796 37.4766 174.556 37.9979 174.079 38.3928C173.606 38.7878 172.965 38.9853 172.157 38.9853C171.346 38.9853 170.704 38.7878 170.23 38.3928C169.757 37.9979 169.521 37.4766 169.521 36.8289H171.095C171.092 37.0745 171.17 37.2951 171.33 37.4908C171.494 37.6865 171.769 37.7844 172.157 37.7844C172.535 37.7844 172.805 37.6883 172.969 37.4961C173.132 37.304 173.214 37.0816 173.214 36.8289ZM185.012 50.7705C184.215 50.7705 183.505 50.6335 182.882 50.3596C182.263 50.082 181.774 49.7013 181.414 49.2173C181.058 48.7298 180.875 48.1676 180.864 47.5307H183.192C183.206 47.7975 183.293 48.0324 183.453 48.2352C183.617 48.4345 183.834 48.5893 184.104 48.6996C184.375 48.8099 184.679 48.865 185.017 48.865C185.369 48.865 185.681 48.8028 185.951 48.6782C186.222 48.5537 186.433 48.3811 186.586 48.1605C186.739 47.9399 186.816 47.6855 186.816 47.3972C186.816 47.1054 186.734 46.8475 186.57 46.6233C186.41 46.3956 186.179 46.2176 185.876 46.0895C185.578 45.9614 185.222 45.8974 184.809 45.8974H183.789V44.2001H184.809C185.158 44.2001 185.465 44.1396 185.732 44.0186C186.003 43.8976 186.213 43.7304 186.362 43.5169C186.512 43.2998 186.586 43.0472 186.586 42.7589C186.586 42.4849 186.52 42.2447 186.389 42.0384C186.261 41.8284 186.079 41.6647 185.844 41.5473C185.613 41.4299 185.343 41.3712 185.033 41.3712C184.72 41.3712 184.434 41.4281 184.174 41.542C183.914 41.6523 183.706 41.8106 183.549 42.017C183.393 42.2234 183.309 42.4654 183.298 42.7429H181.083C181.094 42.1131 181.274 41.558 181.622 41.0776C181.971 40.5972 182.441 40.2218 183.032 39.9514C183.626 39.6774 184.297 39.5404 185.044 39.5404C185.798 39.5404 186.458 39.6774 187.024 39.9514C187.59 40.2254 188.029 40.5955 188.342 41.0616C188.659 41.5242 188.816 42.0437 188.812 42.6202C188.816 43.2322 188.625 43.7428 188.241 44.152C187.86 44.5612 187.364 44.821 186.752 44.9313V45.0167C187.556 45.1199 188.168 45.3992 188.588 45.8547C189.011 46.3066 189.221 46.8724 189.218 47.552C189.221 48.1747 189.042 48.7281 188.679 49.212C188.319 49.6959 187.823 50.0767 187.189 50.3542C186.556 50.6318 185.83 50.7705 185.012 50.7705ZM193.348 39.6899H195.654V46.5646H195.744L200.468 39.6899H202.491V50.6211H200.18V43.741H200.1L195.349 50.6211H193.348V39.6899ZM206.805 50.6211V39.6899H209.117V44.2001H213.808V39.6899H216.114V50.6211H213.808V46.1056H209.117V50.6211H206.805ZM227.678 39.6899V41.5953H222.736V50.6211H220.424V39.6899H227.678Z" fill="#fff"/></svg>