<svg xmlns="http://www.w3.org/2000/svg" width="107" height="42" viewBox="0 0 107 42" fill="none"><path fill="#3C3CE9" d="M0 0H41.5V41.5H0z"/><path d="M7.12431 27.4885V14.0953H10.8027V27.4885H7.12431ZM23.5429 17.3022H19.6947V27.4885H16.0163V17.3022H12.1493V14.0953H23.5429V17.3022ZM32.994 18.4717C32.994 18.4717 32.8871 18.4088 32.6733 18.2831C32.4596 18.1573 32.1766 18.019 31.8245 17.8681C31.4724 17.7046 31.0888 17.56 30.6738 17.4342C30.2588 17.3084 29.8501 17.2456 29.4477 17.2456C29.1333 17.2456 28.8755 17.2959 28.6743 17.3965C28.473 17.4971 28.3724 17.6669 28.3724 17.9058C28.3724 18.1322 28.473 18.3145 28.6743 18.4528C28.8755 18.5912 29.1584 18.7169 29.5231 18.8301C29.9004 18.9433 30.3468 19.0816 30.8624 19.2451C31.6924 19.4966 32.4093 19.7859 33.0129 20.1128C33.6165 20.4398 34.0818 20.8611 34.4088 21.3767C34.7358 21.8797 34.8993 22.5525 34.8993 23.3951C34.8993 24.2 34.7546 24.8791 34.4654 25.4324C34.1761 25.9731 33.7863 26.407 33.2958 26.734C32.8054 27.0609 32.2583 27.2999 31.6547 27.4508C31.0511 27.5891 30.4349 27.6583 29.8061 27.6583C29.1647 27.6583 28.4919 27.5954 27.7877 27.4697C27.096 27.3313 26.4232 27.149 25.7693 26.9226C25.1153 26.6837 24.518 26.407 23.9772 26.0926L25.5618 22.8669C25.5618 22.8669 25.6875 22.9424 25.939 23.0933C26.1905 23.2442 26.5238 23.414 26.9388 23.6026C27.3538 23.7913 27.8128 23.961 28.3158 24.1119C28.8314 24.2628 29.3471 24.3383 29.8627 24.3383C30.2651 24.3383 30.5418 24.288 30.6927 24.1874C30.8561 24.0742 30.9379 23.9296 30.9379 23.7535C30.9379 23.4894 30.7996 23.2882 30.5229 23.1499C30.2462 22.999 29.8815 22.8606 29.4288 22.7349C28.9886 22.5966 28.4982 22.4394 27.9574 22.2633C27.1777 21.9992 26.5364 21.7037 26.0333 21.3767C25.5303 21.0372 25.1593 20.641 24.9204 20.1883C24.6814 19.723 24.562 19.1634 24.562 18.5094C24.562 17.5159 24.7946 16.6859 25.2599 16.0194C25.7252 15.3529 26.3352 14.8499 27.0897 14.5103C27.8568 14.1582 28.6805 13.9822 29.5608 13.9822C30.2148 13.9822 30.8436 14.0639 31.4472 14.2274C32.0634 14.3783 32.6356 14.5669 33.1638 14.7933C33.7046 15.0197 34.1761 15.2334 34.5786 15.4347L32.994 18.4717Z" fill="#fff"/><path d="M55.3588 27.3944C54.4911 27.3944 53.6611 27.2435 52.8688 26.9416C52.0891 26.6272 51.3974 26.1745 50.7938 25.5835C50.1902 24.9798 49.7123 24.2567 49.3602 23.4141C49.0206 22.559 48.8509 21.5844 48.8509 20.4903C48.8509 19.5471 49.0269 18.6731 49.379 17.8682C49.7312 17.0634 50.2153 16.3591 50.8315 15.7555C51.4603 15.1393 52.1897 14.6614 53.0197 14.3219C53.8497 13.9823 54.7489 13.8125 55.7172 13.8125C56.9245 13.8125 58.0186 14.0766 58.9995 14.6048C59.9804 15.1204 60.7098 15.831 61.1877 16.7364L58.4524 18.8303C58.1884 18.3021 57.7922 17.8808 57.264 17.5664C56.7359 17.2394 56.1762 17.076 55.5852 17.076C55.145 17.076 54.7426 17.164 54.3779 17.34C54.0132 17.5161 53.6925 17.7613 53.4159 18.0757C53.1518 18.3901 52.9443 18.7674 52.7934 19.2075C52.655 19.6351 52.5859 20.1067 52.5859 20.6223C52.5859 21.1505 52.6613 21.6284 52.8122 22.056C52.9631 22.4835 53.1706 22.8545 53.4347 23.1689C53.7114 23.4707 54.0384 23.7097 54.4156 23.8857C54.7929 24.0492 55.2142 24.131 55.6795 24.131C56.2706 24.131 56.8365 23.9863 57.3772 23.6971C57.918 23.3953 58.4084 22.974 58.8486 22.4332V26.0173C57.8425 26.9354 56.6793 27.3944 55.3588 27.3944ZM58.6599 22.8105H56.1888V20.1696H61.697V27.3H58.6599V22.8105ZM70.0019 20.4337C69.3102 20.4337 68.6814 20.5091 68.1155 20.66C67.5496 20.811 67.1283 21.0625 66.8516 21.4146V27.3H63.2675V17.3778H66.5498V19.2641C66.9019 18.5976 67.3421 18.0883 67.8703 17.7362C68.3984 17.3715 68.9581 17.1891 69.5491 17.1891C69.6875 17.1891 69.7818 17.1891 69.8321 17.1891C69.895 17.1891 69.9516 17.1954 70.0019 17.208V20.4337ZM76.0008 27.4887C75.1205 27.4887 74.3408 27.3504 73.6617 27.0737C72.9826 26.797 72.4104 26.4197 71.9451 25.9419C71.4924 25.4514 71.1465 24.8981 70.9076 24.2819C70.6812 23.6657 70.5681 23.018 70.5681 22.3389C70.5681 21.6598 70.6812 21.0122 70.9076 20.396C71.1465 19.7672 71.4924 19.2138 71.9451 18.736C72.4104 18.2581 72.9826 17.8808 73.6617 17.6041C74.3408 17.3275 75.1205 17.1891 76.0008 17.1891C76.8937 17.1891 77.6734 17.3275 78.3399 17.6041C79.019 17.8808 79.5849 18.2581 80.0376 18.736C80.5029 19.2138 80.8487 19.7672 81.0751 20.396C81.314 21.0122 81.4335 21.6598 81.4335 22.3389C81.4335 23.018 81.314 23.6657 81.0751 24.2819C80.8487 24.8981 80.5029 25.4514 80.0376 25.9419C79.5849 26.4197 79.019 26.797 78.3399 27.0737C77.6734 27.3504 76.8937 27.4887 76.0008 27.4887ZM74.2465 22.3389C74.2465 22.7791 74.3219 23.1626 74.4728 23.4896C74.6237 23.804 74.8312 24.0492 75.0953 24.2253C75.3594 24.3888 75.6612 24.4705 76.0008 24.4705C76.3403 24.4705 76.6422 24.3888 76.9062 24.2253C77.1703 24.0492 77.3778 23.804 77.5287 23.4896C77.6797 23.1626 77.7551 22.7791 77.7551 22.3389C77.7551 21.8988 77.6797 21.5215 77.5287 21.2071C77.3778 20.8801 77.1703 20.6349 76.9062 20.4714C76.6422 20.2954 76.3403 20.2073 76.0008 20.2073C75.6612 20.2073 75.3594 20.2954 75.0953 20.4714C74.8312 20.6349 74.6237 20.8801 74.4728 21.2071C74.3219 21.5215 74.2465 21.8988 74.2465 22.3389ZM82.6079 23.9046V17.3778H86.192V23.0935C86.192 23.521 86.2863 23.8606 86.475 24.1121C86.6762 24.351 86.9466 24.4705 87.2861 24.4705C87.4747 24.4705 87.6634 24.4454 87.852 24.395C88.0407 24.3447 88.2293 24.2441 88.4179 24.0932C88.6191 23.9423 88.8141 23.7285 89.0027 23.4519V17.3778H92.5868V23.3387C92.5868 23.6782 92.6371 23.9172 92.7377 24.0555C92.8383 24.1813 93.0144 24.2567 93.2659 24.2819V27.3C92.9515 27.3629 92.6685 27.4069 92.417 27.4321C92.1655 27.4698 91.9454 27.4887 91.7568 27.4887C91.1532 27.4887 90.6753 27.3755 90.3232 27.1491C89.971 26.9228 89.7447 26.5769 89.6441 26.1116L89.5686 25.7532C89.1033 26.3694 88.5437 26.8159 87.8897 27.0925C87.2484 27.3566 86.519 27.4887 85.7016 27.4887C84.7081 27.4887 83.941 27.1806 83.4002 26.5644C82.872 25.9482 82.6079 25.0616 82.6079 23.9046ZM101.409 27.4887C100.692 27.4887 100.07 27.3504 99.5417 27.0737C99.0135 26.7844 98.6048 26.3694 98.3156 25.8287V31.318H94.7315V17.3778H97.844V18.868C98.1961 18.3272 98.63 17.9122 99.1456 17.623C99.6738 17.3338 100.309 17.1891 101.051 17.1891C101.717 17.1891 102.327 17.3149 102.881 17.5664C103.434 17.8179 103.918 18.1763 104.333 18.6416C104.748 19.1069 105.069 19.6477 105.295 20.2639C105.521 20.8801 105.635 21.5592 105.635 22.3012C105.635 23.2947 105.452 24.1813 105.088 24.961C104.723 25.7407 104.22 26.3569 103.579 26.8096C102.95 27.2623 102.227 27.4887 101.409 27.4887ZM100.164 24.4705C100.428 24.4705 100.667 24.4139 100.881 24.3007C101.107 24.1875 101.302 24.0304 101.466 23.8291C101.629 23.6279 101.755 23.3953 101.843 23.1312C101.931 22.8671 101.975 22.5841 101.975 22.2823C101.975 21.9679 101.925 21.685 101.824 21.4335C101.736 21.1819 101.604 20.9682 101.428 20.7921C101.252 20.6035 101.045 20.4588 100.806 20.3582C100.567 20.2576 100.303 20.2073 100.013 20.2073C99.8498 20.2073 99.6863 20.2325 99.5229 20.2828C99.372 20.3205 99.2273 20.3834 99.089 20.4714C98.9507 20.5469 98.8123 20.6475 98.674 20.7732C98.5482 20.899 98.4288 21.0499 98.3156 21.226V22.9425C98.4288 23.2318 98.5797 23.4959 98.7683 23.7348C98.9695 23.9612 99.1896 24.1435 99.4285 24.2819C99.6675 24.4076 99.9127 24.4705 100.164 24.4705Z" fill="#fff"/></svg>