<svg xmlns="http://www.w3.org/2000/svg" width="33" height="34" viewBox="0 0 33 34" fill="none"><path d="M5.7002 8.5001C5.7002 8.2614 5.79502 8.03248 5.9638 7.8637C6.13258 7.69492 6.3615 7.6001 6.6002 7.6001H26.4002C26.6389 7.6001 26.8678 7.69492 27.0366 7.8637C27.2054 8.03248 27.3002 8.2614 27.3002 8.5001C27.3002 8.73879 27.2054 8.96771 27.0366 9.13649C26.8678 9.30528 26.6389 9.4001 26.4002 9.4001H6.6002C6.3615 9.4001 6.13258 9.30528 5.9638 9.13649C5.79502 8.96771 5.7002 8.73879 5.7002 8.5001ZM5.7002 16.7501C5.7002 16.5114 5.79502 16.2825 5.9638 16.1137C6.13258 15.9449 6.3615 15.8501 6.6002 15.8501H26.4002C26.6389 15.8501 26.8678 15.9449 27.0366 16.1137C27.2054 16.2825 27.3002 16.5114 27.3002 16.7501C27.3002 16.9888 27.2054 17.2177 27.0366 17.3865C26.8678 17.5553 26.6389 17.6501 26.4002 17.6501H6.6002C6.3615 17.6501 6.13258 17.5553 5.9638 17.3865C5.79502 17.2177 5.7002 16.9888 5.7002 16.7501ZM5.7002 25.0001C5.7002 24.7614 5.79502 24.5325 5.9638 24.3637C6.13258 24.1949 6.3615 24.1001 6.6002 24.1001H26.4002C26.6389 24.1001 26.8678 24.1949 27.0366 24.3637C27.2054 24.5325 27.3002 24.7614 27.3002 25.0001C27.3002 25.2388 27.2054 25.4677 27.0366 25.6365C26.8678 25.8053 26.6389 25.9001 26.4002 25.9001H6.6002C6.3615 25.9001 6.13258 25.8053 5.9638 25.6365C5.79502 25.4677 5.7002 25.2388 5.7002 25.0001Z" fill="#fff" stroke="#fff" stroke-width="1.5"/></svg>